<?xml version="1.0" encoding="UTF-8"?>
<svg id="Layer_2" data-name="Layer 2" xmlns="http://www.w3.org/2000/svg" viewBox="0 0 797.55 233.98">
  <defs>
    <style>
      .cls-1 {
        fill: #8bfc00;
        stroke-width: 0px;
      }
    </style>
  </defs>
  <g id="Layer_1-2" data-name="Layer 1">
    <g>
      <path class="cls-1" d="M0,51.52C0,26.6,13.58,2.52,49.56,2.52c33.32,0,46.48,13.3,48.44,40.04h-25.34c-1.12-12.6-6.44-19.88-22.68-19.88s-24.22,9.66-24.22,28.84,6.72,28.7,23.52,28.7,22.68-7,23.66-20.58h25.62c-2.24,28.56-14.98,40.6-49.14,40.6C13.44,100.24,0,77.14,0,51.52Z"/>
      <path class="cls-1" d="M109.9,98V0h24.08v98h-24.08Z"/>
      <path class="cls-1" d="M147.84,28h24.08v38.36c0,9.38,3.78,14.42,12.32,14.42,9.38,0,14.98-6.44,14.98-19.88V28h24.08v70h-24.08v-12.74c-4.48,9.1-12.46,14.98-24.78,14.98-18.34,0-26.6-11.34-26.6-29.68V28Z"/>
      <path class="cls-1" d="M318.08,62.86c0,20.02-9.1,37.38-32.06,37.38-11.9,0-19.88-4.34-24.64-11.9v9.66h-24.08V0h24.08v37.66c4.76-7.42,12.74-11.9,24.64-11.9,22.96,0,32.06,17.64,32.06,37.1ZM294,63c0-13.02-4.2-18.48-16.1-18.48s-16.52,6.02-16.52,18.48,4.2,18.48,16.52,18.48,16.1-5.46,16.1-18.48Z"/>
      <path class="cls-1" d="M46.94,111.3h24.79v54.48c0,16.25,5.88,20.73,18.49,20.73s18.77-4.48,18.77-20.73v-54.48h24.65v57.7c0,24.79-14.57,37.67-43.41,37.67s-43.27-12.74-43.27-37.67v-57.7Z"/>
      <path class="cls-1" d="M222.41,161.86v42.57h-24.09v-38.51c0-9.24-3.78-14.29-12.18-14.29-9.66,0-15.26,6.16-15.26,19.89v32.91h-24.09v-70.02h24.09v12.88c4.62-9.1,12.74-15.12,25.21-15.12,18.35,0,26.33,11.34,26.33,29.69Z"/>
      <path class="cls-1" d="M316.52,169.56c0,19.47-9.1,37.11-32.07,37.11-11.9,0-19.89-4.48-24.65-12.04v37.81h-24.09v-98.03h24.09v9.52c4.76-7.42,12.74-11.76,24.65-11.76,22.97,0,32.07,17.23,32.07,37.39ZM292.43,169.42c0-13.02-4.2-18.49-16.11-18.49s-16.53,6.02-16.53,18.49,4.2,18.49,16.53,18.49,16.11-5.46,16.11-18.49Z"/>
      <path class="cls-1" d="M326.74,204.43v-98.03h24.09v98.03h-24.09Z"/>
      <path class="cls-1" d="M364.69,134.41h24.09v38.37c0,9.38,3.78,14.42,12.32,14.42,9.38,0,14.98-6.44,14.98-19.89v-32.91h24.09v70.02h-24.09v-12.74c-4.48,9.1-12.46,14.99-24.79,14.99-18.35,0-26.61-11.34-26.61-29.69v-42.57Z"/>
      <path class="cls-1" d="M507.67,134.41h24.09v65.96c0,22.69-11.34,33.61-40.89,33.61-25.35,0-36.83-11.76-37.81-26.89h23.39c.84,6.16,5.32,10.36,15.69,10.36s15.54-3.92,15.54-13.3v-12.46c-4.76,6.72-12.46,10.64-23.95,10.64-23.11,0-32.49-16.53-32.49-35.01s9.38-35.01,32.49-35.01c11.48,0,19.19,3.92,23.95,10.5v-8.4ZM507.67,167.74c0-11.2-3.92-16.81-15.68-16.81s-16.67,4.76-16.67,16.81,4.62,16.95,16.67,16.95,15.68-5.6,15.68-16.95Z"/>
      <path class="cls-1" d="M598.84,134.41h24.09v65.96c0,22.69-11.34,33.61-40.89,33.61-25.35,0-36.83-11.76-37.81-26.89h23.39c.84,6.16,5.32,10.36,15.68,10.36s15.55-3.92,15.55-13.3v-12.46c-4.76,6.72-12.46,10.64-23.95,10.64-23.11,0-32.49-16.53-32.49-35.01s9.38-35.01,32.49-35.01c11.48,0,19.19,3.92,23.95,10.5v-8.4ZM598.84,167.74c0-11.2-3.92-16.81-15.69-16.81s-16.67,4.76-16.67,16.81,4.62,16.95,16.67,16.95,15.69-5.6,15.69-16.95Z"/>
      <path class="cls-1" d="M685.1,183.28h23.39c-2.38,12.04-11.9,23.39-37.39,23.39-28.57,0-38.65-18.21-38.65-37.39,0-20.31,11.76-37.11,38.65-37.11,28.57,0,37.67,18.07,37.67,37.53,0,2.24-.14,4.34-.42,5.88h-52.52c1.4,11.2,6.86,14.98,15.83,14.98,7.14,0,11.48-3.08,13.44-7.28ZM656.11,161.58h29.83c-.84-8.82-5.18-13.58-14.56-13.58-8.68,0-13.72,3.5-15.26,13.58Z"/>
      <path class="cls-1" d="M773.47,106.4h24.09v98.03h-24.09v-9.52c-4.9,7.42-12.74,11.76-24.51,11.76-23.11,0-32.21-17.37-32.21-37.39s9.1-37.11,32.21-37.11c11.76,0,19.61,4.34,24.51,11.76v-37.53ZM773.47,169.42c0-12.46-4.2-18.49-16.53-18.49s-15.96,5.46-15.96,18.49,4.06,18.49,15.96,18.49,16.53-6.02,16.53-18.49Z"/>
      <g>
        <path class="cls-1" d="M615.85,145.73c-17.37,2.65-32.37-1.72-44.45-14.92-4.18-4.57-8.11-9.51-12.92-13.33-8.25-6.55-18.24-9.71-28.52-11.12-9.76-1.34-19.67-1.64-29.51-2.37-.48-.04-.97.11-1.61.19-.03.94-.04,1.77-.09,2.61-.25,4.2-3.21,7.1-7.44,7.24-2.21.07-4.43.06-6.64.02-1.37-.03-2.15.3-2.51,1.86-.18.77-1.36,1.78-2.16,1.85-2.62.23-5.27.05-7.91.08-1.52.02-2.07-.65-2.07-2.18.04-9.45.06-18.91-.02-28.36-.02-1.75.62-2.23,2.23-2.19,2.47.07,4.94,0,7.41-.05,1.5-.04,2.27.52,2.72,2.06.22.75,1.37,1.58,2.21,1.71,1.66.26,3.39.08,5.1.06,6.2-.07,8.97,2.56,9.13,8.68.01.58.05,1.17.08,1.97,4.76.16,9.42.22,14.07.48,13.26.75,26.27,2.71,38.51,8.28,7.99,3.63,14.81,8.72,20.03,15.83,7.1,9.65,16.42,15.73,28.32,17.58,5.68.89,11.37.81,17.01-.48l-.96,4.5Z"/>
        <path class="cls-1" d="M298.76,57.42c12.59-1.79,24.58-.16,35.24,7.11,3.89,2.65,7.68,5.89,10.46,9.64,8.28,11.15,19.46,17.33,32.58,20.61,12.51,3.12,25.25,3.85,38.08,3.58.24,0,.48-.13.8-.23.03-.76.05-1.52.09-2.27.21-4.36,3.13-7.26,7.53-7.41,2.13-.07,4.26-.05,6.39-.03,1.4.01,2.44-.15,2.69-1.95.1-.68,1.25-1.67,1.98-1.72,2.8-.22,5.62-.09,8.43-.15,1.64-.04,1.71,1.02,1.71,2.21,0,8.18.05,16.36,0,24.54-.03,5.96-.09,5.97-6.06,6.02-1.28.01-2.61.2-3.81-.12-.88-.23-2.07-1.04-2.24-1.79-.37-1.59-1.29-1.85-2.57-1.86-1.79-.02-3.58-.01-5.37-.01-5.78,0-8.56-2.75-8.71-8.59-.02-.67-.04-1.34-.07-2.2-4.07-.06-8.05-.04-12.03-.19-13.7-.53-27.18-2.24-39.95-7.68-8.23-3.51-15.34-8.51-20.75-15.71-5.91-7.86-13.29-13.62-22.85-16.39-7.45-2.16-14.97-2.12-22.54-.88l.96-4.5Z"/>
        <path class="cls-1" d="M445.89,111.37c-.04-1.68-.07-3.08-.11-4.78,4.71.02,9.2-.07,13.67.17.8.04,2.12,1.42,2.13,2.2.01.79-1.26,2.26-2.03,2.3-4.47.22-8.97.12-13.67.12Z"/>
        <path class="cls-1" d="M445.78,95.33c.03-1.74.05-3.07.07-4.75,4.72,0,9.27-.1,13.81.13.73.04,1.95,1.61,1.9,2.4-.05.78-1.41,2.05-2.25,2.09-4.4.22-8.81.12-13.54.13Z"/>
      </g>
    </g>
  </g>
</svg>