<svg width="24" height="24" viewBox="0 0 24 24" fill="none" xmlns="http://www.w3.org/2000/svg">
<path d="M12.1388 2.81471C11.845 2.55079 11.4641 2.40479 11.0692 2.40479C10.6743 2.40479 10.2933 2.55079 9.99958 2.81471L4.13143 8.08751C3.96439 8.23745 3.83076 8.42086 3.73922 8.62581C3.64769 8.83076 3.60028 9.05268 3.6001 9.27714V16.8044C3.6001 17.2288 3.76871 17.6359 4.06885 17.936C4.36898 18.2362 4.77605 18.4048 5.2005 18.4048H7.33437C7.75883 18.4048 8.1659 18.2362 8.46603 17.936C8.76617 17.6359 8.93478 17.2288 8.93478 16.8044V12.5366C8.93478 12.3952 8.99098 12.2595 9.09103 12.1594C9.19107 12.0594 9.32676 12.0032 9.46825 12.0032H12.6691C12.8105 12.0032 12.9462 12.0594 13.0463 12.1594C13.1463 12.2595 13.2025 12.3952 13.2025 12.5366V16.8044C13.2025 17.2288 13.3711 17.6359 13.6713 17.936C13.9714 18.2362 14.3785 18.4048 14.8029 18.4048H16.9368C17.3613 18.4048 17.7683 18.2362 18.0685 17.936C18.3686 17.6359 18.5372 17.2288 18.5372 16.8044V9.27714C18.5372 9.05276 18.4899 8.83089 18.3986 8.62594C18.3072 8.421 18.1738 8.23755 18.0069 8.08751L12.1388 2.81471Z" fill="black"/>
</svg>
