<svg width="24" height="24" viewBox="0 0 24 24" fill="none" xmlns="http://www.w3.org/2000/svg">
<path d="M14.8005 15.5696L15.4289 16.2907L14.8005 15.5696ZM11.9162 14.5292C11.7617 14.354 11.7926 14.0862 11.9986 13.9317L13.9764 12.4277C14.1722 12.2732 14.4503 12.3144 14.5739 12.5101L14.9139 13.0458C15.1611 13.4372 15.295 13.8802 15.3053 14.3334L15.3156 14.6219C15.3259 14.8897 15.192 15.1575 14.9654 15.3327L14.5327 15.6623C14.3061 15.8374 14.0176 15.8889 13.7601 15.8065L13.482 15.7241C13.039 15.5902 12.6476 15.343 12.3488 15.003L11.9162 14.5292Z" fill="none" stroke="black"/>
<path d="M14.8005 15.5696L15.4289 16.2907M11.9162 14.5292C11.7617 14.354 11.7926 14.0862 11.9986 13.9317L13.9764 12.4277C14.1722 12.2732 14.4503 12.3144 14.5739 12.5101L14.9139 13.0458C15.1611 13.4372 15.295 13.8802 15.3053 14.3334L15.3156 14.6219C15.3259 14.8897 15.192 15.1575 14.9654 15.3327L14.5327 15.6623C14.3061 15.8374 14.0176 15.8889 13.7601 15.8065L13.482 15.7241C13.039 15.5902 12.6476 15.343 12.3488 15.003L11.9162 14.5292Z" stroke="black" stroke-linecap="round" stroke-linejoin="round" fill="none"/>
<path d="M9.00146 7.95703L9.68135 8.90475L9.00146 7.95703ZM12.2773 10.9856L12.9572 11.9333L12.2773 10.9856ZM10.8557 12.0157L11.5356 12.9635L10.8557 12.0157ZM12.6996 10.0688C12.8542 10.2542 12.8129 10.5427 12.6069 10.6972L10.4849 12.2321C10.2788 12.3866 9.99039 12.3351 9.85647 12.1291L9.50623 11.5625C9.259 11.1504 9.12508 10.6766 9.12508 10.1924V9.89368C9.12508 9.60524 9.2693 9.32711 9.50623 9.15198L9.96979 8.81204C10.217 8.62662 10.5261 8.58541 10.7939 8.66782L11.0823 8.76053C11.5459 8.91505 11.9476 9.19319 12.267 9.55373L12.6996 10.0688Z" fill="none" stroke="black"/>
<path d="M9.00146 7.95703L9.68135 8.90475M12.2773 10.9856L12.9572 11.9333M10.8557 12.0157L11.5356 12.9635M12.6996 10.0688C12.8542 10.2542 12.8129 10.5427 12.6069 10.6972L10.4849 12.2321C10.2788 12.3866 9.99039 12.3351 9.85647 12.1291L9.50623 11.5625C9.259 11.1504 9.12508 10.6766 9.12508 10.1924V9.89368C9.12508 9.60524 9.2693 9.32711 9.50623 9.15198L9.96979 8.81204C10.217 8.62662 10.5261 8.58541 10.7939 8.66782L11.0823 8.76053C11.5459 8.91505 11.9476 9.19319 12.267 9.55373L12.6996 10.0688Z" stroke="black" stroke-linecap="round" stroke-linejoin="round"   fill="none"/>
<path d="M9.23812 15.9097C8.58914 16.4041 7.82684 16.7235 7.02334 16.8677C6.21984 17.0016 5.39573 16.9501 4.61284 16.7029C3.82994 16.4659 3.11915 16.0436 2.54227 15.4667C1.9551 14.9001 1.52244 14.1894 1.26491 13.4168C1.00738 12.6442 0.935268 11.8201 1.05888 11.0166C1.1825 10.213 1.49154 9.44045 1.9757 8.78117C2.44956 8.12188 3.07794 7.57591 3.79903 7.20507C4.53042 6.83422 5.33393 6.6591 6.14773 6.6385C7.79594 6.59729 8.32131 7.12266 8.91878 7.86435" stroke="black" stroke-linecap="round" fill="none"/>
<path d="M14.502 8.28639C15.12 7.76102 15.8617 7.37987 16.6549 7.19445C17.4481 7.00902 18.2722 7.00902 19.0654 7.20475C19.8586 7.40047 20.59 7.78162 21.2081 8.30699C21.8262 8.84266 22.3103 9.51224 22.6194 10.2642C22.9284 11.0162 23.052 11.8403 22.9799 12.6541C22.9078 13.4679 22.64 14.2508 22.2073 14.941C21.7747 15.6312 21.1772 16.2081 20.4767 16.6304C19.7762 17.0528 18.983 17.2794 18.1692 17.3412C16.521 17.4855 15.975 16.9086 15.3055 16.1669" stroke="black" stroke-linecap="round" fill="none"/>
</svg>