<svg width="24" height="24" viewBox="0 0 24 24" fill="none" xmlns="http://www.w3.org/2000/svg">
<path d="M8.66536 3C7.54401 2.99967 6.4407 3.28226 5.45758 3.82159C4.47445 4.36092 3.64328 5.13958 3.04101 6.08546C2.43875 7.03135 2.08485 8.11389 2.01209 9.23288C1.93933 10.3519 2.15006 11.4711 2.62477 12.487C2.40105 13.4129 2.19926 14.344 2.01955 15.2794C1.9922 15.4205 1.99962 15.5661 2.04118 15.7037C2.08274 15.8413 2.15718 15.9667 2.25807 16.0691C2.35896 16.1715 2.48327 16.2478 2.62024 16.2913C2.75722 16.3349 2.90274 16.3445 3.04424 16.3192C3.59791 16.2214 4.80212 15.9992 5.92012 15.7415C6.82629 16.1501 7.81239 16.3509 8.80619 16.3291C9.79999 16.3073 10.7763 16.0635 11.6637 15.6156C12.5511 15.1676 13.3271 14.5269 13.9348 13.7402C14.5425 12.9536 14.9666 12.041 15.1759 11.0692C15.3853 10.0975 15.3747 9.09123 15.1448 8.12412C14.915 7.15702 14.4717 6.25357 13.8475 5.47994C13.2233 4.70631 12.434 4.08209 11.5373 3.65299C10.6407 3.2239 9.6594 3.00078 8.66536 3ZM8.63159 17.2194C9.86281 18.3645 11.4826 18.9997 13.164 18.9969C14.1103 18.9975 15.0458 18.7966 15.9084 18.4077C16.8353 18.6245 17.8511 18.8413 18.4972 18.9764C18.6791 19.0146 18.8677 19.0063 19.0455 18.9523C19.2234 18.8983 19.3847 18.8003 19.5147 18.6674C19.6446 18.5346 19.739 18.3711 19.789 18.1921C19.8391 18.0131 19.8432 17.8244 19.801 17.6434C19.657 17.0186 19.4295 16.0481 19.2046 15.1523C19.5996 14.3062 19.8125 13.3866 19.8295 12.453C19.8465 11.5194 19.6672 10.5926 19.3033 9.7327C18.9393 8.87279 18.3989 8.0989 17.7168 7.46115C17.0348 6.8234 16.2264 6.336 15.3441 6.03052C15.6598 6.60344 15.8988 7.21538 16.055 7.85061C16.8041 8.33391 17.42 8.99729 17.8465 9.78007C18.273 10.5629 18.4964 11.4401 18.4963 12.3315C18.4979 13.1809 18.2952 14.0182 17.9053 14.7728L17.7898 14.9977L17.852 15.2429C18.0546 16.0383 18.267 16.9315 18.4226 17.598C17.6086 17.4275 16.7969 17.2468 15.9875 17.0559L15.7529 17.0008L15.5369 17.1083C14.8224 17.4638 14.0172 17.6638 13.164 17.6638C12.2559 17.6645 11.3627 17.4332 10.569 16.9919C9.93574 17.1512 9.28451 17.2277 8.63159 17.2194Z" fill="black"/>
</svg>
