<svg width="24" height="24" viewBox="0 0 24 24" fill="none" xmlns="http://www.w3.org/2000/svg">
<path fill-rule="evenodd" clip-rule="evenodd" d="M4.527 4.602L5.0925 6.75L6.87 13.5075C7.03817 14.147 7.3452 14.7415 7.76925 15.2489C8.19329 15.7562 8.72393 16.1639 9.32341 16.4428C9.92289 16.7218 10.5765 16.8652 11.2377 16.8629C11.8989 16.8606 12.5515 16.7126 13.149 16.4295L19.926 13.2195C20.696 12.8549 21.3466 12.2791 21.8023 11.5593C22.258 10.8394 22.4999 10.005 22.5 9.153V7.5C22.5 6.70435 22.1839 5.94129 21.6213 5.37868C21.0587 4.81607 20.2957 4.5 19.5 4.5H6.834L6.609 3.6975C6.43366 3.06589 6.05627 2.5091 5.53455 2.11225C5.01283 1.71541 4.3755 1.50037 3.72 1.5H1.125C0.826631 1.5 0.540483 1.61853 0.329505 1.8295C0.118526 2.04048 0 2.32663 0 2.625C0 2.92337 0.118526 3.20952 0.329505 3.4205C0.540483 3.63147 0.826631 3.75 1.125 3.75H3.72C3.88395 3.7499 4.04342 3.80354 4.174 3.90269C4.30457 4.00184 4.39906 4.14104 4.443 4.299L4.527 4.602ZM12.186 14.397L18.963 11.187C19.3481 11.0046 19.6735 10.7166 19.9014 10.3566C20.1292 9.99648 20.2501 9.57911 20.25 9.153V7.5C20.25 7.30109 20.171 7.11032 20.0303 6.96967C19.8897 6.82902 19.6989 6.75 19.5 6.75H7.419L9.045 12.936C9.12926 13.2556 9.2829 13.5527 9.495 13.8062C9.70709 14.0597 9.97243 14.2634 10.2722 14.4027C10.5719 14.542 10.8986 14.6136 11.2291 14.6124C11.5597 14.6111 11.8858 14.5371 12.1845 14.3955M18 22.125C18.6962 22.125 19.3639 21.8484 19.8562 21.3562C20.3484 20.8639 20.625 20.1962 20.625 19.5C20.625 18.8038 20.3484 18.1361 19.8562 17.6438C19.3639 17.1516 18.6962 16.875 18 16.875C17.3038 16.875 16.6361 17.1516 16.1438 17.6438C15.6516 18.1361 15.375 18.8038 15.375 19.5C15.375 20.1962 15.6516 20.8639 16.1438 21.3562C16.6361 21.8484 17.3038 22.125 18 22.125ZM7.125 19.5C7.125 19.8447 7.0571 20.1861 6.92518 20.5045C6.79327 20.823 6.59991 21.1124 6.35616 21.3562C6.1124 21.5999 5.82302 21.7933 5.50454 21.9252C5.18606 22.0571 4.84472 22.125 4.5 22.125C4.15528 22.125 3.81394 22.0571 3.49546 21.9252C3.17698 21.7933 2.8876 21.5999 2.64384 21.3562C2.40009 21.1124 2.20673 20.823 2.07482 20.5045C1.9429 20.1861 1.875 19.8447 1.875 19.5C1.875 18.8038 2.15156 18.1361 2.64384 17.6438C3.13613 17.1516 3.80381 16.875 4.5 16.875C5.19619 16.875 5.86387 17.1516 6.35616 17.6438C6.84844 18.1361 7.125 18.8038 7.125 19.5Z" fill="#8FFA09"/>
</svg>
