<svg width="24" height="24" viewBox="0 0 24 24" fill="none" xmlns="http://www.w3.org/2000/svg">
<mask id="path-1-inside-1_171_1850" fill="white">
<path d="M9.56049 3C8.29891 2.99962 7.05761 3.31749 5.95149 3.92418C4.84536 4.53087 3.91015 5.40679 3.2324 6.47086C2.55466 7.53494 2.15628 8.75278 2.07414 10.0117C1.992 11.2706 2.22876 12.5299 2.76249 13.673L2.03849 16.515C1.98527 16.7238 1.98692 16.9427 2.04326 17.1507C2.0996 17.3586 2.20873 17.5484 2.36005 17.7018C2.51138 17.8551 2.69977 17.9668 2.90694 18.0258C3.11412 18.0849 3.33305 18.0895 3.54249 18.039C4.29249 17.859 5.44549 17.582 6.47249 17.337C7.49221 17.7968 8.60187 18.0227 9.7202 17.9982C10.8385 17.9736 11.9372 17.6992 12.9358 17.1951C13.9343 16.691 14.8075 15.9698 15.4912 15.0845C16.175 14.1993 16.6521 13.1722 16.8875 12.0787C17.123 10.9852 17.1109 9.8528 16.852 8.76455C16.5932 7.67631 16.0942 6.65974 15.3916 5.78932C14.689 4.91889 13.8006 4.21664 12.7915 3.73401C11.7824 3.25138 10.6781 3.00058 9.55949 3M3.55949 10.5C3.55988 9.1953 3.98554 7.92628 4.77197 6.88523C5.5584 5.84419 6.66273 5.08785 7.91763 4.73083C9.17253 4.37381 10.5096 4.43556 11.7263 4.90672C12.9429 5.37789 13.9728 6.23279 14.66 7.34189C15.3471 8.45099 15.654 9.75384 15.5341 11.053C15.4143 12.3522 14.8742 13.5769 13.9957 14.5416C13.1173 15.5062 11.9483 16.1583 10.666 16.3989C9.3837 16.6395 8.05789 16.4556 6.88949 15.875L6.64549 15.754L6.38149 15.817C5.45849 16.037 4.39149 16.292 3.59349 16.484L4.28349 13.776L4.35349 13.5L4.22349 13.247C3.78659 12.3973 3.55894 11.4555 3.55949 10.5ZM14.5595 21C12.6677 21.0022 10.8454 20.2876 9.45949 19H9.55949C10.2775 19 10.9745 18.911 11.6395 18.743C12.5045 19.225 13.4995 19.5 14.5595 19.5C15.5195 19.5 16.4255 19.275 17.2295 18.875L17.4725 18.754L17.7365 18.817C18.6585 19.037 19.7025 19.262 20.4765 19.427C20.3015 18.676 20.0625 17.671 19.8345 16.776L19.7645 16.5L19.8945 16.247C20.3317 15.3974 20.5597 14.4556 20.5595 13.5C20.5596 12.4969 20.3081 11.5099 19.8283 10.6291C19.3484 9.74827 18.6553 9.00182 17.8125 8.458C17.6366 7.74358 17.3677 7.05535 17.0125 6.411C18.0052 6.75475 18.9147 7.30315 19.682 8.02069C20.4494 8.73823 21.0575 9.60892 21.467 10.5764C21.8765 11.5439 22.0783 12.5865 22.0592 13.6369C22.0402 14.6873 21.8008 15.722 21.3565 16.674C21.6095 17.682 21.8655 18.774 22.0275 19.477C22.075 19.6807 22.0704 19.893 22.0141 20.0944C21.9578 20.2958 21.8516 20.4798 21.7054 20.6293C21.5591 20.7788 21.3776 20.8891 21.1775 20.9498C20.9774 21.0106 20.7652 21.02 20.5605 20.977C19.5871 20.7746 18.6161 20.5612 17.6475 20.337C16.6769 20.7747 15.6242 21.0007 14.5595 21Z"/>
</mask>
<path d="M9.56049 3C8.29891 2.99962 7.05761 3.31749 5.95149 3.92418C4.84536 4.53087 3.91015 5.40679 3.2324 6.47086C2.55466 7.53494 2.15628 8.75278 2.07414 10.0117C1.992 11.2706 2.22876 12.5299 2.76249 13.673L2.03849 16.515C1.98527 16.7238 1.98692 16.9427 2.04326 17.1507C2.0996 17.3586 2.20873 17.5484 2.36005 17.7018C2.51138 17.8551 2.69977 17.9668 2.90694 18.0258C3.11412 18.0849 3.33305 18.0895 3.54249 18.039C4.29249 17.859 5.44549 17.582 6.47249 17.337C7.49221 17.7968 8.60187 18.0227 9.7202 17.9982C10.8385 17.9736 11.9372 17.6992 12.9358 17.1951C13.9343 16.691 14.8075 15.9698 15.4912 15.0845C16.175 14.1993 16.6521 13.1722 16.8875 12.0787C17.123 10.9852 17.1109 9.8528 16.852 8.76455C16.5932 7.67631 16.0942 6.65974 15.3916 5.78932C14.689 4.91889 13.8006 4.21664 12.7915 3.73401C11.7824 3.25138 10.6781 3.00058 9.55949 3M3.55949 10.5C3.55988 9.1953 3.98554 7.92628 4.77197 6.88523C5.5584 5.84419 6.66273 5.08785 7.91763 4.73083C9.17253 4.37381 10.5096 4.43556 11.7263 4.90672C12.9429 5.37789 13.9728 6.23279 14.66 7.34189C15.3471 8.45099 15.654 9.75384 15.5341 11.053C15.4143 12.3522 14.8742 13.5769 13.9957 14.5416C13.1173 15.5062 11.9483 16.1583 10.666 16.3989C9.3837 16.6395 8.05789 16.4556 6.88949 15.875L6.64549 15.754L6.38149 15.817C5.45849 16.037 4.39149 16.292 3.59349 16.484L4.28349 13.776L4.35349 13.5L4.22349 13.247C3.78659 12.3973 3.55894 11.4555 3.55949 10.5ZM14.5595 21C12.6677 21.0022 10.8454 20.2876 9.45949 19H9.55949C10.2775 19 10.9745 18.911 11.6395 18.743C12.5045 19.225 13.4995 19.5 14.5595 19.5C15.5195 19.5 16.4255 19.275 17.2295 18.875L17.4725 18.754L17.7365 18.817C18.6585 19.037 19.7025 19.262 20.4765 19.427C20.3015 18.676 20.0625 17.671 19.8345 16.776L19.7645 16.5L19.8945 16.247C20.3317 15.3974 20.5597 14.4556 20.5595 13.5C20.5596 12.4969 20.3081 11.5099 19.8283 10.6291C19.3484 9.74827 18.6553 9.00182 17.8125 8.458C17.6366 7.74358 17.3677 7.05535 17.0125 6.411C18.0052 6.75475 18.9147 7.30315 19.682 8.02069C20.4494 8.73823 21.0575 9.60892 21.467 10.5764C21.8765 11.5439 22.0783 12.5865 22.0592 13.6369C22.0402 14.6873 21.8008 15.722 21.3565 16.674C21.6095 17.682 21.8655 18.774 22.0275 19.477C22.075 19.6807 22.0704 19.893 22.0141 20.0944C21.9578 20.2958 21.8516 20.4798 21.7054 20.6293C21.5591 20.7788 21.3776 20.8891 21.1775 20.9498C20.9774 21.0106 20.7652 21.02 20.5605 20.977C19.5871 20.7746 18.6161 20.5612 17.6475 20.337C16.6769 20.7747 15.6242 21.0007 14.5595 21Z" fill="white"/>
<path d="M2.76249 13.673L3.53773 13.8705L3.60829 13.5935L3.48737 13.3345L2.76249 13.673ZM2.03849 16.515L2.8137 16.7126L2.81373 16.7125L2.03849 16.515ZM3.54249 18.039L3.35579 17.2611L3.35514 17.2612L3.54249 18.039ZM6.47249 17.337L6.80135 16.6077L6.55244 16.4955L6.28685 16.5588L6.47249 17.337ZM3.55949 10.5L4.35949 10.5005V10.5002L3.55949 10.5ZM6.88949 15.875L7.24549 15.1586L7.24491 15.1583L6.88949 15.875ZM6.64549 15.754L7.00091 15.0373L6.74147 14.9086L6.45979 14.9759L6.64549 15.754ZM6.38149 15.817L6.56698 16.5952L6.56719 16.5951L6.38149 15.817ZM3.59349 16.484L2.81826 16.2865L2.49066 17.5722L3.78063 17.2618L3.59349 16.484ZM4.28349 13.776L5.05872 13.9735L5.05894 13.9727L4.28349 13.776ZM4.35349 13.5L5.12894 13.6967L5.20331 13.4034L5.06505 13.1344L4.35349 13.5ZM4.22349 13.247L4.93505 12.8814L4.93496 12.8812L4.22349 13.247ZM14.5595 21L14.56 20.2L14.5585 20.2L14.5595 21ZM9.45949 19V18.2H7.42303L8.91498 19.5861L9.45949 19ZM11.6395 18.743L12.0289 18.0442L11.7515 17.8896L11.4435 17.9674L11.6395 18.743ZM17.2295 18.875L17.5858 19.5913L17.5861 19.5911L17.2295 18.875ZM17.4725 18.754L17.6582 17.9758L17.3758 17.9085L17.1159 18.0379L17.4725 18.754ZM17.7365 18.817L17.5508 19.5951L17.5508 19.5952L17.7365 18.817ZM20.4765 19.427L20.3097 20.2094L21.5414 20.472L21.2556 19.2454L20.4765 19.427ZM19.8345 16.776L19.059 16.9727L19.0592 16.9735L19.8345 16.776ZM19.7645 16.5L19.0529 16.1344L18.9147 16.4034L18.989 16.6967L19.7645 16.5ZM19.8945 16.247L19.1832 15.8809L19.1829 15.8814L19.8945 16.247ZM20.5595 13.5L19.7595 13.5V13.5002L20.5595 13.5ZM17.8125 8.458L17.0357 8.64923L17.1117 8.95788L17.3788 9.13022L17.8125 8.458ZM17.0125 6.411L17.2743 5.65504L15.3068 4.97378L16.3119 6.79718L17.0125 6.411ZM21.3565 16.674L20.6315 16.3357L20.5114 16.5932L20.5806 16.8688L21.3565 16.674ZM22.0275 19.477L21.2479 19.6566L21.2484 19.6587L22.0275 19.477ZM20.5605 20.977L20.7248 20.1941L20.7234 20.1938L20.5605 20.977ZM17.6475 20.337L17.8279 19.5576L17.5648 19.4967L17.3186 19.6077L17.6475 20.337ZM9.56073 2.2C8.16458 2.19958 6.79088 2.55135 5.56677 3.22276L6.3362 4.6256C7.32434 4.08362 8.43323 3.79966 9.56025 3.8L9.56073 2.2ZM5.56677 3.22276C4.34265 3.89417 3.30769 4.86352 2.55765 6.04109L3.90716 6.90064C4.51261 5.95007 5.34807 5.16758 6.3362 4.6256L5.56677 3.22276ZM2.55765 6.04109C1.80761 7.21867 1.36674 8.56641 1.27584 9.9596L2.87244 10.0638C2.94582 8.93915 3.30171 7.85121 3.90716 6.90064L2.55765 6.04109ZM1.27584 9.9596C1.18494 11.3528 1.44694 12.7464 2.03761 14.0115L3.48737 13.3345C3.01057 12.3134 2.79907 11.1884 2.87244 10.0638L1.27584 9.9596ZM1.98725 13.4755L1.26325 16.3175L2.81373 16.7125L3.53773 13.8705L1.98725 13.4755ZM1.26328 16.3174C1.17601 16.6598 1.1787 17.0189 1.2711 17.3599L2.81542 16.9414C2.79513 16.8666 2.79454 16.7878 2.8137 16.7126L1.26328 16.3174ZM1.2711 17.3599C1.3635 17.7009 1.54247 18.0122 1.79064 18.2637L2.92946 17.1398C2.87499 17.0846 2.8357 17.0163 2.81542 16.9414L1.2711 17.3599ZM1.79064 18.2637C2.03882 18.5152 2.34777 18.6983 2.68754 18.7952L3.12634 17.2565C3.05176 17.2352 2.98394 17.1951 2.92946 17.1398L1.79064 18.2637ZM2.68754 18.7952C3.02731 18.8921 3.38635 18.8995 3.72984 18.8168L3.35514 17.2612C3.27974 17.2794 3.20092 17.2778 3.12634 17.2565L2.68754 18.7952ZM3.72919 18.8169C4.47949 18.6368 5.6318 18.36 6.65813 18.1152L6.28685 16.5588C5.25918 16.804 4.10549 17.0812 3.35579 17.2611L3.72919 18.8169ZM6.14363 18.0663C7.27211 18.5752 8.50014 18.8252 9.73776 18.798L9.70264 17.1984C8.7036 17.2203 7.7123 17.0185 6.80135 16.6077L6.14363 18.0663ZM9.73776 18.798C10.9754 18.7708 12.1913 18.4672 13.2963 17.9092L12.5752 16.481C11.6832 16.9313 10.7017 17.1764 9.70264 17.1984L9.73776 18.798ZM13.2963 17.9092C14.4014 17.3513 15.3677 16.5533 16.1244 15.5736L14.8581 14.5955C14.2473 15.3864 13.4673 16.0306 12.5752 16.481L13.2963 17.9092ZM16.1244 15.5736C16.8811 14.5938 17.409 13.4573 17.6696 12.2471L16.1055 11.9103C15.8951 12.8872 15.4689 13.8047 14.8581 14.5955L16.1244 15.5736ZM17.6696 12.2471C17.9302 11.0369 17.9168 9.78376 17.6303 8.57944L16.0737 8.94967C16.305 9.92183 16.3158 10.9334 16.1055 11.9103L17.6696 12.2471ZM17.6303 8.57944C17.3439 7.37512 16.7917 6.25012 16.0141 5.28684L14.7691 6.29179C15.3968 7.06937 15.8425 7.9775 16.0737 8.94967L17.6303 8.57944ZM16.0141 5.28684C15.2366 4.32357 14.2535 3.54641 13.1367 3.0123L12.4464 4.45571C13.3478 4.88686 14.1415 5.51421 14.7691 6.29179L16.0141 5.28684ZM13.1367 3.0123C12.0199 2.47819 10.7978 2.20065 9.55991 2.2L9.55907 3.8C10.5584 3.80052 11.5449 4.02456 12.4464 4.45571L13.1367 3.0123ZM4.35949 10.5002C4.35983 9.3695 4.72874 8.26969 5.41031 7.36744L4.13363 6.40302C3.24235 7.58288 2.75994 9.0211 2.75949 10.4998L4.35949 10.5002ZM5.41031 7.36744C6.09188 6.4652 7.04896 5.80971 8.13655 5.50029L7.69872 3.96136C6.27649 4.36599 5.02492 5.22317 4.13363 6.40302L5.41031 7.36744ZM8.13655 5.50029C9.22413 5.19087 10.3829 5.24439 11.4374 5.65274L12.0152 4.16071C10.6363 3.62672 9.12094 3.55674 7.69872 3.96136L8.13655 5.50029ZM11.4374 5.65274C12.4918 6.06108 13.3844 6.802 13.9799 7.76322L15.34 6.92057C14.5613 5.66359 13.394 4.6947 12.0152 4.16071L11.4374 5.65274ZM13.9799 7.76322C14.5754 8.72444 14.8414 9.85357 14.7375 10.9795L16.3307 11.1265C16.4666 9.65411 16.1188 8.17755 15.34 6.92057L13.9799 7.76322ZM14.7375 10.9795C14.6336 12.1055 14.1656 13.1669 13.4042 14.0029L14.5872 15.0802C15.5828 13.9869 16.1949 12.5989 16.3307 11.1265L14.7375 10.9795ZM13.4042 14.0029C12.6429 14.839 11.6298 15.4041 10.5185 15.6126L10.8136 17.1852C12.2669 16.9125 13.5917 16.1735 14.5872 15.0802L13.4042 14.0029ZM10.5185 15.6126C9.40714 15.8212 8.2581 15.6618 7.24549 15.1586L6.53349 16.5914C7.85768 17.2494 9.36026 17.4579 10.8136 17.1852L10.5185 15.6126ZM7.24491 15.1583L7.00091 15.0373L6.29007 16.4707L6.53407 16.5917L7.24491 15.1583ZM6.45979 14.9759L6.19579 15.0389L6.56719 16.5951L6.83119 16.5321L6.45979 14.9759ZM6.196 15.0388C5.27279 15.2589 4.20516 15.514 3.40635 15.7062L3.78063 17.2618C4.57782 17.07 5.64418 16.8152 6.56698 16.5952L6.196 15.0388ZM4.36872 16.6815L5.05872 13.9735L3.50826 13.5785L2.81826 16.2865L4.36872 16.6815ZM5.05894 13.9727L5.12894 13.6967L3.57804 13.3033L3.50804 13.5793L5.05894 13.9727ZM5.06505 13.1344L4.93505 12.8814L3.51193 13.6126L3.64193 13.8656L5.06505 13.1344ZM4.93496 12.8812C4.55631 12.1448 4.35901 11.3285 4.35949 10.5005L2.75949 10.4995C2.75887 11.5824 3.01687 12.6498 3.51202 13.6128L4.93496 12.8812ZM14.5585 20.2C12.8691 20.202 11.2417 19.5638 10.004 18.4139L8.91498 19.5861C10.4491 21.0114 12.4664 21.8025 14.5604 21.8L14.5585 20.2ZM9.45949 19.8H9.55949V18.2H9.45949V19.8ZM9.55949 19.8C10.3438 19.8 11.1066 19.7028 11.8354 19.5186L11.4435 17.9674C10.8424 18.1192 10.2112 18.2 9.55949 18.2V19.8ZM11.2501 19.4418C12.2307 19.9883 13.3593 20.3 14.5595 20.3V18.7C13.6397 18.7 12.7783 18.4617 12.0289 18.0442L11.2501 19.4418ZM14.5595 20.3C15.6459 20.3 16.6736 20.0451 17.5858 19.5913L16.8731 18.1587C16.1774 18.5049 15.3931 18.7 14.5595 18.7V20.3ZM17.5861 19.5911L17.8291 19.4701L17.1159 18.0379L16.8729 18.1589L17.5861 19.5911ZM17.2868 19.5322L17.5508 19.5951L17.9222 18.0388L17.6582 17.9758L17.2868 19.5322ZM17.5508 19.5952C18.4832 19.8176 19.5356 20.0444 20.3097 20.2094L20.6433 18.6446C19.8694 18.4796 18.8338 18.2564 17.9222 18.0388L17.5508 19.5952ZM21.2556 19.2454C21.0801 18.4923 20.8397 17.4812 20.6097 16.5785L19.0592 16.9735C19.2853 17.8607 19.5229 18.8597 19.6974 19.6086L21.2556 19.2454ZM20.6099 16.5793L20.5399 16.3033L18.989 16.6967L19.059 16.9727L20.6099 16.5793ZM20.4761 16.8656L20.6061 16.6126L19.1829 15.8814L19.0529 16.1344L20.4761 16.8656ZM20.6058 16.6131C21.1014 15.6501 21.3598 14.5828 21.3595 13.4998L19.7595 13.5002C19.7597 14.3283 19.5621 15.1446 19.1832 15.8809L20.6058 16.6131ZM21.3595 13.5C21.3596 12.3633 21.0746 11.2446 20.5308 10.2463L19.1258 11.0118C19.5417 11.7752 19.7595 12.6306 19.7595 13.5L21.3595 13.5ZM20.5308 10.2463C19.9869 9.24809 19.2014 8.40211 18.2462 7.78578L17.3788 9.13022C18.1092 9.60153 18.7099 10.2484 19.1258 11.0118L20.5308 10.2463ZM18.5893 8.26678C18.3967 7.48431 18.1021 6.73054 17.7131 6.02482L16.3119 6.79718C16.6332 7.38016 16.8766 8.00284 17.0357 8.64923L18.5893 8.26678ZM16.7507 7.16696C17.6376 7.47406 18.4501 7.96399 19.1356 8.60502L20.2285 7.43636C19.3793 6.64231 18.3728 6.03544 17.2743 5.65504L16.7507 7.16696ZM19.1356 8.60502C19.8212 9.24606 20.3644 10.0239 20.7303 10.8882L22.2037 10.2646C21.7506 9.19394 21.0776 8.23041 20.2285 7.43636L19.1356 8.60502ZM20.7303 10.8882C21.0961 11.7525 21.2764 12.684 21.2593 13.6224L22.8591 13.6514C22.8802 12.489 22.6569 11.3352 22.2037 10.2646L20.7303 10.8882ZM21.2593 13.6224C21.2423 14.5608 21.0285 15.4852 20.6315 16.3357L22.0814 17.0123C22.5731 15.9588 22.838 14.8138 22.8591 13.6514L21.2593 13.6224ZM20.5806 16.8688C20.8317 17.8694 21.0864 18.9557 21.2479 19.6566L22.8071 19.2974C22.6446 18.5923 22.3873 17.4946 22.1324 16.4792L20.5806 16.8688ZM21.2484 19.6587C21.2653 19.7314 21.2637 19.8072 21.2436 19.8791L22.7845 20.3098C22.877 19.9789 22.8846 19.63 22.8066 19.2953L21.2484 19.6587ZM21.2436 19.8791C21.2235 19.9509 21.1856 20.0166 21.1334 20.07L22.2773 21.1887C22.5176 20.943 22.692 20.6407 22.7845 20.3098L21.2436 19.8791ZM21.1334 20.07C21.0812 20.1233 21.0164 20.1627 20.945 20.1844L21.4099 21.7153C21.7387 21.6155 22.037 21.4344 22.2773 21.1887L21.1334 20.07ZM20.945 20.1844C20.8736 20.2061 20.7979 20.2094 20.7248 20.1941L20.3962 21.7599C20.7325 21.8305 21.0811 21.8152 21.4099 21.7153L20.945 20.1844ZM20.7234 20.1938C19.7559 19.9925 18.7907 19.7805 17.8279 19.5576L17.4671 21.1164C18.4415 21.342 19.4184 21.5566 20.3976 21.7602L20.7234 20.1938ZM17.3186 19.6077C16.4516 19.9987 15.5112 20.2006 14.56 20.2L14.559 21.8C15.7373 21.8008 16.9022 21.5507 17.9764 21.0663L17.3186 19.6077Z" fill="white" mask="url(#path-1-inside-1_171_1850)"/>
</svg>
