<svg width="21" height="21" viewBox="0 0 21 21" fill="none" xmlns="http://www.w3.org/2000/svg">
<g id="icons/social/ic-facebbook">
<path id="shape" d="M14.6667 3.41582C14.6667 3.1857 14.4801 2.99915 14.25 2.99915H12.1667C9.98276 2.89036 8.12106 4.56589 8 6.74915V8.99915H5.91667C5.68655 8.99915 5.5 9.1857 5.5 9.41582V11.5825C5.5 11.8126 5.68655 11.9992 5.91667 11.9992H8V17.5825C8 17.8126 8.18655 17.9992 8.41667 17.9992H10.9167C11.1468 17.9992 11.3333 17.8126 11.3333 17.5825V11.9992H13.5167C13.7073 12.0019 13.8755 11.8749 13.925 11.6908L14.525 9.52415C14.5586 9.39938 14.5324 9.26608 14.4541 9.16329C14.3758 9.06051 14.2542 8.99988 14.125 8.99915H11.3333V6.74915C11.3763 6.32173 11.7371 5.997 12.1667 5.99915H14.25C14.4801 5.99915 14.6667 5.8126 14.6667 5.58249V3.41582Z" fill="#1877F2"/>
</g>
</svg>
