<svg width="225" height="225" viewBox="0 0 225 225" fill="none" xmlns="http://www.w3.org/2000/svg">
<path d="M112.5 215.068C171.051 215.068 218.515 187.664 218.515 153.86C218.515 120.055 171.051 92.6505 112.5 92.6505C53.9492 92.6505 6.4845 120.055 6.4845 153.86C6.4845 187.664 53.9492 215.068 112.5 215.068Z" fill="#F0F0F0"/>
<path d="M90.5625 200.241C110.753 200.241 127.121 190.792 127.121 179.136C127.121 167.48 110.753 158.031 90.5625 158.031C70.3721 158.031 54.0045 167.48 54.0045 179.136C54.0045 190.792 70.3721 200.241 90.5625 200.241Z" fill="#E0E0E0"/>
<path d="M194.526 152.73L190.238 150.255C190.238 150.255 189.189 141.075 189.887 133.965C190.868 123.975 197.321 111.951 205.016 114.777C212.711 117.603 201.488 127.773 198.99 136.247C196.493 144.72 194.526 152.73 194.526 152.73Z" fill="#8FFA09"/>
<path opacity="0.15" d="M194.526 152.73L190.238 150.255C190.238 150.255 189.189 141.075 189.887 133.965C190.868 123.975 197.321 111.951 205.016 114.777C212.711 117.603 201.488 127.773 198.99 136.247C196.493 144.72 194.526 152.73 194.526 152.73Z" fill="black"/>
<path d="M192.271 151.691C192.34 151.687 192.404 151.657 192.451 151.606C192.497 151.556 192.521 151.489 192.519 151.421C191.767 129.222 202.819 118.053 202.927 117.945C202.976 117.896 203.004 117.83 203.004 117.761C203.004 117.691 202.976 117.625 202.927 117.576C202.904 117.552 202.875 117.533 202.844 117.52C202.813 117.507 202.779 117.5 202.745 117.5C202.711 117.5 202.678 117.507 202.646 117.52C202.615 117.533 202.587 117.552 202.563 117.576C202.446 117.684 191.236 129.015 191.997 151.439C191.998 151.473 192.006 151.507 192.021 151.539C192.035 151.57 192.056 151.599 192.081 151.622C192.107 151.646 192.137 151.664 192.17 151.675C192.202 151.687 192.237 151.692 192.271 151.691Z" fill="white"/>
<path d="M197.221 154.274L194.17 152.514C194.17 152.514 193.648 146.214 196.74 138.564C199.44 131.904 206.1 126.374 209.457 127.535C212.814 128.696 212.728 131.076 211.09 133.574C209.452 136.071 199.503 142.016 197.221 154.274Z" fill="#8FFA09"/>
<path d="M195.61 153.608C195.679 153.606 195.745 153.578 195.794 153.53C195.842 153.481 195.87 153.415 195.871 153.347C195.808 139.307 208.989 129.821 209.124 129.726C209.152 129.707 209.176 129.682 209.194 129.653C209.213 129.624 209.225 129.592 209.23 129.559C209.236 129.525 209.234 129.49 209.226 129.457C209.218 129.424 209.203 129.393 209.182 129.366C209.143 129.31 209.083 129.273 209.015 129.261C208.948 129.249 208.879 129.264 208.822 129.303C208.687 129.398 195.291 139.046 195.349 153.347C195.349 153.416 195.377 153.482 195.426 153.531C195.475 153.58 195.541 153.608 195.61 153.608Z" fill="white"/>
<path d="M35.847 147.217L39.807 144.544C39.807 144.544 41.5485 134.194 39.9285 125.064C37.6515 112.257 28.8 108 25.65 109.35C22.5 110.7 21.825 114.511 27.7065 121.819C31.194 126.117 35.7255 135.292 35.847 147.217Z" fill="#8FFA09"/>
<g opacity="0.15">
<path d="M35.847 147.217L39.807 144.544C39.807 144.544 41.5485 134.194 39.9285 125.064C37.6515 112.257 28.8 108 25.65 109.35C22.5 110.7 21.825 114.511 27.7065 121.819C31.194 126.117 35.7255 135.292 35.847 147.217Z" fill="black"/>
</g>
<path d="M37.206 142.087H37.1655C37.125 142.085 37.0856 142.074 37.0497 142.055C37.0138 142.036 36.9823 142.01 36.9572 141.978C36.9322 141.946 36.9141 141.909 36.9043 141.87C36.8944 141.831 36.8929 141.79 36.9 141.75C38.331 129.694 33.2415 116.608 27.702 111.402C27.6487 111.348 27.6188 111.275 27.6188 111.199C27.6188 111.124 27.6487 111.051 27.702 110.997C27.7284 110.97 27.7599 110.949 27.7947 110.934C27.8294 110.919 27.8668 110.912 27.9045 110.912C27.9422 110.912 27.9795 110.919 28.0143 110.934C28.0491 110.949 28.0806 110.97 28.107 110.997C33.75 116.298 38.934 129.6 37.485 141.831C37.4765 141.9 37.4438 141.964 37.3926 142.01C37.3415 142.057 37.2754 142.085 37.206 142.087Z" fill="white"/>
<path d="M25.479 154.21C24.849 154.588 23.013 153.225 22.5045 152.896C21.633 152.327 20.9231 151.543 20.4435 150.619C19.9054 149.572 19.7058 148.383 19.872 147.217C19.9642 146.609 20.098 146.008 20.2725 145.417C20.43 144.828 20.5875 144.238 20.7225 143.644C20.9221 143.067 20.9987 142.454 20.9475 141.844C20.772 140.643 19.6875 139.819 18.6975 139.113C17.6085 138.325 16.4475 137.286 16.4475 135.837C16.503 134.698 16.9388 133.612 17.685 132.75C18.36 131.85 19.17 131.067 19.7775 130.126C20.2526 129.475 20.495 128.682 20.466 127.876C20.3878 127.38 20.2102 126.904 19.944 126.477C19.413 125.541 18.7245 124.677 18.351 123.682C17.9775 122.688 18.0045 121.41 18.801 120.667C19.4355 120.06 20.403 119.961 21.2805 120.001C22.1074 120.084 22.9061 120.346 23.6205 120.771C25.947 122.008 27.315 124.708 29.7765 125.649C30.726 126.009 31.761 126.072 32.7465 126.315C33.732 126.558 34.749 127.039 35.2215 127.935C36.153 129.712 34.5285 131.953 35.1945 133.839C35.7885 135.513 37.4445 136.125 38.3805 137.623C38.7604 138.289 38.918 139.058 38.8305 139.819C38.7777 141.105 38.4894 142.369 37.98 143.55C37.3941 144.775 36.7328 145.962 36 147.105C36 147.105 25.5735 154.152 25.479 154.21Z" fill="#8FFA09"/>
<path d="M31.5631 150.48C31.5252 150.479 31.4879 150.471 31.4532 150.456C31.4185 150.441 31.387 150.42 31.3607 150.392C31.3344 150.365 31.3137 150.333 31.2998 150.298C31.2858 150.263 31.279 150.225 31.2796 150.187C31.5316 138.793 25.9246 126.337 21.9556 122.737C21.8991 122.687 21.8651 122.615 21.8609 122.54C21.8567 122.464 21.8826 122.389 21.9331 122.332C21.9595 122.305 21.991 122.284 22.0257 122.269C22.0605 122.255 22.0978 122.247 22.1356 122.247C22.1733 122.247 22.2106 122.255 22.2454 122.269C22.2802 122.284 22.3117 122.305 22.3381 122.332C26.3881 125.977 32.1076 138.649 31.8511 150.201C31.8505 150.238 31.8426 150.275 31.8278 150.309C31.813 150.343 31.7916 150.374 31.7649 150.4C31.7381 150.426 31.7065 150.446 31.6719 150.46C31.6373 150.474 31.6003 150.48 31.5631 150.48Z" fill="white"/>
<path d="M29.4615 136.597C29.4349 136.604 29.4071 136.604 29.3805 136.597C25.6995 135.535 21.1365 135.427 21.0915 135.423C21.0539 135.422 21.0168 135.414 20.9823 135.399C20.9478 135.384 20.9167 135.362 20.8907 135.335C20.8648 135.308 20.8445 135.276 20.831 135.241C20.8176 135.205 20.8113 135.168 20.8125 135.13C20.8118 135.092 20.819 135.055 20.8336 135.02C20.8483 134.985 20.87 134.953 20.8975 134.927C20.925 134.9 20.9576 134.88 20.9934 134.867C21.0291 134.854 21.0671 134.849 21.105 134.851C21.15 134.851 25.785 134.964 29.538 136.044C29.6106 136.066 29.6715 136.115 29.7078 136.182C29.744 136.248 29.7525 136.327 29.7315 136.399C29.714 136.457 29.6782 136.508 29.6295 136.543C29.5808 136.579 29.5219 136.598 29.4615 136.597Z" fill="white"/>
<path d="M135.522 139.383L133.816 138.397C133.532 138.213 133.296 137.964 133.126 137.671C132.956 137.377 132.858 137.048 132.84 136.71V65.826C132.859 65.4882 132.956 65.1596 133.125 64.8665C133.294 64.5734 133.529 64.324 133.812 64.1385L181.219 36.7695C181.521 36.6165 181.855 36.5367 182.194 36.5367C182.532 36.5367 182.866 36.6165 183.168 36.7695L184.873 37.755C185.158 37.9395 185.394 38.1885 185.564 38.4817C185.734 38.775 185.832 39.1042 185.85 39.4425V110.326C185.831 110.664 185.734 110.993 185.565 111.286C185.396 111.579 185.161 111.828 184.878 112.014L137.47 139.387C137.168 139.541 136.834 139.62 136.496 139.62C136.157 139.619 135.823 139.538 135.522 139.383Z" fill="#455A64"/>
<path d="M185.85 39.285C185.783 38.781 185.373 38.5965 184.883 38.88L137.471 66.2535C137.184 66.4334 136.947 66.6825 136.782 66.978L133.124 64.8675C133.287 64.5698 133.524 64.3188 133.812 64.1385L181.22 36.7695C181.522 36.6165 181.855 36.5367 182.194 36.5367C182.532 36.5367 182.866 36.6165 183.168 36.7695L184.874 37.755C185.137 37.9246 185.361 38.1491 185.529 38.4132C185.698 38.6772 185.807 38.9746 185.85 39.285Z" fill="#455A64"/>
<path d="M137.304 139.464C137.016 139.581 136.706 139.634 136.396 139.621C136.085 139.608 135.781 139.528 135.504 139.387L133.794 138.397C133.511 138.212 133.276 137.963 133.107 137.669C132.938 137.376 132.841 137.048 132.822 136.71V65.8259C132.834 65.4875 132.931 65.1577 133.106 64.8674L136.764 66.9779C136.586 67.2686 136.487 67.6004 136.476 67.9409V138.825C136.494 139.383 136.845 139.639 137.304 139.464Z" fill="#263238"/>
<path d="M136.494 67.95V138.825C136.494 139.446 136.944 139.698 137.471 139.388L184.878 112.014C185.161 111.828 185.396 111.579 185.565 111.286C185.734 110.993 185.831 110.664 185.85 110.327V39.4425C185.85 38.8215 185.4 38.5695 184.878 38.88L137.471 66.2535C137.185 66.4389 136.948 66.6893 136.778 66.9842C136.608 67.2792 136.511 67.6101 136.494 67.95Z" fill="#37474F"/>
<path d="M125.424 94.95C124.812 94.5855 121.972 92.97 121.824 92.8845C121.708 92.8154 121.61 92.7213 121.535 92.609C121.461 92.4967 121.412 92.3691 121.394 92.2356C121.375 92.1022 121.387 91.9662 121.428 91.8379C121.469 91.7095 121.538 91.592 121.63 91.494L132.84 79.47L136.494 81.567L125.289 93.6C125.201 93.6937 125.134 93.8051 125.093 93.9269C125.051 94.0486 125.037 94.1778 125.049 94.3057C125.062 94.4336 125.102 94.5573 125.167 94.6684C125.232 94.7795 125.319 94.8756 125.424 94.95Z" fill="#455A64"/>
<path d="M136.494 81.5804L125.289 93.5999C125.164 93.7328 125.083 93.9003 125.056 94.0803C125.029 94.2602 125.057 94.4443 125.136 94.608C125.215 94.7718 125.343 94.9077 125.501 94.9976C125.659 95.0876 125.841 95.1275 126.022 95.1119L136.494 94.2479V81.5804Z" fill="#37474F"/>
<path d="M161.172 59.94C166.698 56.7495 171.175 59.337 171.175 65.718C171.175 72.099 166.698 79.8525 161.172 83.043C155.646 86.2335 151.168 83.646 151.168 77.2695C151.168 70.893 155.646 63.1305 161.172 59.94Z" fill="#8FFA09"/>
<path d="M161.1 64.962C162.9 63.927 164.344 64.764 164.344 66.834C164.283 67.9593 163.957 69.0542 163.394 70.03C162.83 71.0057 162.044 71.8349 161.1 72.45C159.3 73.485 157.851 72.648 157.851 70.578C157.913 69.4524 158.239 68.3572 158.804 67.3814C159.368 66.4056 160.155 65.5767 161.1 64.962Z" fill="white"/>
<path d="M167.499 75.996C167.499 72.5985 165.11 71.217 162.167 72.918L160.326 73.98C157.383 75.681 154.994 79.83 154.994 83.2185V84.15C155.549 84.3276 156.129 84.4172 156.713 84.4155C158.291 84.3618 159.829 83.8964 161.172 83.0655C163.73 81.4898 165.894 79.3504 167.499 76.8105V75.996Z" fill="white"/>
<path d="M154.836 114.629L167.508 107.312C168.048 107.001 168.484 107.253 168.484 107.874V111.956C168.466 112.294 168.368 112.623 168.198 112.916C168.029 113.21 167.792 113.459 167.508 113.643L154.836 120.96C154.296 121.271 153.859 121.019 153.859 120.398V116.316C153.878 115.978 153.976 115.649 154.146 115.355C154.315 115.062 154.552 114.813 154.836 114.629Z" fill="#8FFA09"/>
<path d="M148.631 105.511L173.7 91.0305C174.344 90.657 174.87 90.9585 174.87 91.7055V93.222C174.848 93.6278 174.731 94.0226 174.527 94.3745C174.324 94.7263 174.041 95.0253 173.7 95.247L148.617 109.728C147.974 110.101 147.452 109.8 147.452 109.053V107.55C147.472 107.141 147.59 106.743 147.795 106.388C148 106.034 148.286 105.733 148.631 105.511Z" fill="#FAFAFA"/>
<path d="M151.564 95.031C151.906 94.833 152.172 94.8015 152.361 94.941C152.55 95.0805 152.644 95.391 152.644 95.868C152.654 96.3034 152.557 96.7345 152.361 97.1235C152.184 97.4752 151.907 97.7665 151.564 97.9605L150.889 98.352V99.8055C150.888 99.8556 150.876 99.9047 150.853 99.9495C150.838 99.9902 150.809 100.025 150.772 100.049L150.43 100.247C150.419 100.255 150.405 100.26 150.39 100.26C150.375 100.26 150.361 100.255 150.349 100.247C150.325 100.216 150.314 100.177 150.318 100.139V95.931C150.318 95.8813 150.328 95.8321 150.349 95.787C150.367 95.747 150.395 95.7127 150.43 95.688L151.564 95.031ZM150.889 97.5375L151.542 97.1595C151.7 97.0706 151.833 96.9438 151.929 96.7905C152.031 96.6098 152.081 96.4041 152.073 96.1965C152.073 95.9535 152.023 95.814 151.929 95.7735C151.862 95.7573 151.793 95.7565 151.726 95.7714C151.658 95.7862 151.596 95.8162 151.542 95.859L150.889 96.237V97.5375Z" fill="#FAFAFA"/>
<path d="M154.53 93.3165C154.575 93.2895 154.611 93.2895 154.633 93.3165C154.662 93.3569 154.682 93.4029 154.692 93.4515L155.731 96.9705C155.731 96.9705 155.731 96.9975 155.731 97.011C155.731 97.0612 155.718 97.1104 155.695 97.155C155.68 97.1957 155.651 97.2304 155.614 97.254L155.308 97.4295C155.254 97.461 155.214 97.4655 155.191 97.4295C155.17 97.4069 155.154 97.379 155.146 97.3485L154.962 96.732L153.612 97.506L153.432 98.334C153.419 98.3788 153.403 98.4225 153.382 98.4645C153.36 98.5194 153.318 98.5642 153.265 98.5905L152.959 98.766C152.948 98.7755 152.934 98.7808 152.919 98.7808C152.904 98.7808 152.89 98.7755 152.878 98.766C152.855 98.7369 152.844 98.6998 152.847 98.6625C152.844 98.6461 152.844 98.6294 152.847 98.613L153.882 93.897C153.894 93.8277 153.914 93.7598 153.94 93.6945C153.962 93.6472 153.999 93.6079 154.044 93.582L154.53 93.3165ZM154.764 96.0435L154.314 94.455L153.864 96.579L154.764 96.0435Z" fill="#FAFAFA"/>
<path d="M157.306 91.647C157.457 91.5519 157.628 91.4948 157.806 91.4804C157.931 91.4692 158.057 91.4975 158.166 91.5615C158.265 91.6256 158.342 91.7181 158.386 91.827C158.436 91.9377 158.463 92.0569 158.467 92.178C158.47 92.2279 158.46 92.2778 158.436 92.322C158.42 92.3627 158.392 92.3973 158.355 92.421L158.058 92.5919C158.008 92.6189 157.972 92.6234 157.95 92.5919C157.922 92.5736 157.899 92.5489 157.882 92.52C157.864 92.4795 157.838 92.443 157.806 92.4129C157.773 92.3827 157.735 92.3594 157.693 92.3445C157.556 92.3248 157.417 92.3604 157.306 92.4434C157.233 92.4905 157.164 92.5432 157.099 92.601C157.033 92.6624 156.974 92.732 156.924 92.808C156.876 92.8812 156.837 92.9597 156.807 93.0419C156.78 93.1202 156.767 93.2023 156.766 93.285C156.761 93.3607 156.775 93.4365 156.807 93.5054C156.821 93.5296 156.84 93.55 156.864 93.5649C156.887 93.5798 156.914 93.5888 156.942 93.5909C157.025 93.6054 157.111 93.6054 157.194 93.5909L157.585 93.5054C157.731 93.4622 157.883 93.444 158.035 93.4515C158.144 93.4511 158.25 93.4858 158.337 93.5505C158.419 93.6197 158.479 93.7123 158.508 93.8159C158.552 93.9617 158.572 94.1138 158.566 94.2659C158.566 94.467 158.537 94.667 158.481 94.86C158.426 95.0584 158.346 95.2489 158.242 95.427C158.133 95.6094 158.004 95.7786 157.855 95.9309C157.704 96.0879 157.531 96.2228 157.342 96.3315C157.204 96.4158 157.052 96.4752 156.892 96.507C156.763 96.5319 156.629 96.521 156.505 96.4755C156.393 96.4232 156.3 96.3365 156.24 96.228C156.166 96.0891 156.126 95.935 156.123 95.778C156.122 95.7267 156.133 95.6761 156.154 95.6294C156.174 95.5911 156.204 95.5586 156.24 95.535L156.537 95.364C156.582 95.337 156.618 95.3279 156.645 95.3414C156.672 95.3549 156.69 95.3774 156.708 95.4179C156.726 95.4642 156.751 95.5081 156.78 95.5485C156.808 95.5877 156.847 95.6175 156.892 95.634C156.952 95.6476 157.013 95.6476 157.072 95.634C157.168 95.6114 157.259 95.5734 157.342 95.5215C157.43 95.4717 157.513 95.4145 157.59 95.3505C157.741 95.2307 157.862 95.0764 157.941 94.9005C157.977 94.8103 157.995 94.714 157.995 94.6169C157.999 94.5817 157.996 94.546 157.986 94.5119C157.976 94.4779 157.959 94.4462 157.936 94.419C157.912 94.3975 157.883 94.3816 157.852 94.3723C157.821 94.3629 157.789 94.3604 157.756 94.365C157.654 94.3692 157.553 94.3858 157.455 94.4145C157.338 94.4415 157.203 94.473 157.045 94.5C156.925 94.5301 156.8 94.5392 156.676 94.527C156.579 94.5207 156.487 94.4809 156.415 94.4145C156.338 94.3382 156.283 94.2415 156.258 94.1355C156.222 93.9791 156.205 93.8189 156.208 93.6585C156.208 93.4603 156.237 93.2632 156.294 93.0735C156.348 92.8782 156.426 92.6906 156.528 92.5155C156.625 92.3415 156.743 92.1798 156.879 92.034C157.002 91.8853 157.146 91.755 157.306 91.647Z" fill="#FAFAFA"/>
<path d="M160.263 89.946C160.412 89.8481 160.584 89.7893 160.762 89.775C160.888 89.7644 161.014 89.7926 161.122 89.856C161.219 89.9218 161.294 90.014 161.338 90.1215C161.388 90.2323 161.415 90.3514 161.419 90.4725C161.425 90.5227 161.414 90.5732 161.388 90.6165C161.372 90.6573 161.344 90.6919 161.307 90.7155L161.01 90.8865C160.965 90.9135 160.929 90.9225 160.902 90.8865C160.873 90.8685 160.851 90.8416 160.839 90.81C160.798 90.7311 160.729 90.6701 160.645 90.639C160.578 90.6292 160.51 90.6329 160.444 90.6499C160.378 90.6669 160.317 90.6968 160.263 90.738C160.188 90.7839 160.117 90.8367 160.051 90.8955C159.986 90.9571 159.929 91.0267 159.88 91.1025C159.831 91.1748 159.791 91.2535 159.763 91.3365C159.735 91.4146 159.72 91.4966 159.718 91.5795C159.713 91.6553 159.727 91.7311 159.759 91.8C159.773 91.8242 159.792 91.8446 159.816 91.8595C159.839 91.8744 159.866 91.8834 159.894 91.8855C159.977 91.9001 160.063 91.9001 160.146 91.8855L160.537 91.8C160.684 91.7593 160.836 91.741 160.987 91.746C161.096 91.7451 161.202 91.7798 161.289 91.845C161.371 91.9153 161.432 92.0073 161.464 92.1105C161.504 92.2571 161.522 92.4087 161.518 92.5605C161.518 92.7616 161.489 92.9616 161.433 93.1545C161.378 93.353 161.298 93.5435 161.194 93.7215C161.086 93.9058 160.956 94.0764 160.807 94.23C160.655 94.3831 160.485 94.5162 160.299 94.626C160.16 94.7101 160.008 94.7695 159.849 94.8015C159.721 94.8261 159.589 94.8152 159.466 94.77C159.352 94.7194 159.257 94.6324 159.196 94.5225C159.122 94.3841 159.084 94.2295 159.084 94.0725C159.079 94.0224 159.09 93.9719 159.115 93.9285C159.131 93.8878 159.16 93.8532 159.196 93.8295L159.493 93.6585C159.538 93.6315 159.579 93.6225 159.601 93.636C159.617 93.6431 159.631 93.6537 159.642 93.667C159.653 93.6802 159.66 93.6958 159.664 93.7125C159.685 93.7579 159.709 93.8016 159.736 93.843C159.766 93.8826 159.807 93.9123 159.853 93.9285C159.913 93.9422 159.974 93.9422 160.033 93.9285C160.129 93.906 160.22 93.868 160.303 93.816C160.389 93.7651 160.47 93.708 160.546 93.645C160.625 93.5833 160.695 93.5106 160.753 93.429C160.812 93.3513 160.86 93.2667 160.897 93.177C160.933 93.0869 160.952 92.9906 160.951 92.8935C160.956 92.8583 160.953 92.8225 160.943 92.7885C160.933 92.7545 160.916 92.7228 160.893 92.6955C160.869 92.6741 160.84 92.6582 160.809 92.6488C160.778 92.6395 160.745 92.637 160.713 92.6415C160.612 92.6477 160.513 92.6643 160.416 92.691C160.299 92.718 160.159 92.7495 160.006 92.7765C159.884 92.8067 159.758 92.8158 159.633 92.8035C159.535 92.7984 159.443 92.7585 159.372 92.691C159.296 92.6144 159.242 92.5176 159.219 92.412C159.179 92.2578 159.161 92.0988 159.165 91.9395C159.167 91.7401 159.195 91.5417 159.25 91.35C159.306 91.1554 159.385 90.9681 159.484 90.792C159.582 90.6169 159.701 90.4551 159.84 90.3105C159.961 90.1678 160.104 90.0448 160.263 89.946Z" fill="#FAFAFA"/>
<path d="M163.543 90.5085L163.179 92.6639C163.168 92.7288 163.15 92.7922 163.125 92.8529C163.108 92.9015 163.074 92.9427 163.031 92.97L162.688 93.1679C162.643 93.1949 162.612 93.1949 162.589 93.1679C162.559 93.131 162.542 93.0852 162.54 93.0374L162 89.2349C162 89.2349 162 89.1989 162 89.1854C162.001 89.1354 162.014 89.0862 162.036 89.0414C162.053 89.0014 162.081 88.9671 162.117 88.9424L162.428 88.7624C162.453 88.7519 162.483 88.7519 162.509 88.7624C162.536 88.7624 162.553 88.7985 162.562 88.8705L162.918 91.4309L163.229 89.5094C163.237 89.4615 163.25 89.4147 163.269 89.37C163.287 89.313 163.325 89.2649 163.377 89.2349L163.723 89.0325C163.773 89.0055 163.809 89.01 163.832 89.0325C163.851 89.0611 163.865 89.0931 163.872 89.1269L164.187 90.6884L164.542 87.7184C164.547 87.66 164.564 87.6032 164.592 87.5519C164.613 87.5183 164.641 87.4893 164.673 87.4664L164.984 87.2864C164.995 87.2777 165.009 87.2729 165.024 87.2729C165.039 87.2729 165.053 87.2777 165.064 87.2864C165.077 87.3012 165.087 87.3183 165.093 87.3369C165.099 87.3554 165.102 87.375 165.101 87.3945C165.102 87.4124 165.102 87.4305 165.101 87.4484L164.561 91.872C164.551 91.9367 164.535 92.0001 164.511 92.0609C164.49 92.109 164.456 92.1497 164.412 92.1779L164.065 92.3759C164.025 92.3984 163.994 92.3984 163.971 92.3759C163.948 92.3346 163.93 92.2908 163.917 92.2455L163.543 90.5085Z" fill="#FAFAFA"/>
<path d="M165.649 88.6004C165.659 88.3509 165.69 88.1026 165.739 87.8579C165.791 87.6188 165.869 87.3863 165.973 87.1649C166.073 86.9497 166.2 86.7485 166.351 86.5664C166.505 86.3858 166.69 86.2335 166.896 86.1164C167.054 86.0089 167.24 85.9481 167.431 85.9409C167.574 85.9425 167.711 85.9989 167.814 86.0984C167.923 86.2209 168.002 86.3674 168.043 86.5259C168.102 86.7326 168.133 86.9458 168.138 87.1604C168.138 87.2414 168.138 87.3314 168.138 87.4304C168.138 87.5294 168.138 87.6329 168.138 87.7409C168.138 87.8489 168.138 87.9524 168.138 88.0514C168.138 88.1504 168.138 88.2449 168.138 88.3304C168.128 88.5785 168.098 88.8253 168.048 89.0684C167.996 89.3068 167.919 89.5391 167.818 89.7614C167.716 89.976 167.588 90.177 167.436 90.3599C167.282 90.5388 167.1 90.6909 166.896 90.8099C166.734 90.9167 166.546 90.9774 166.351 90.9854C166.281 90.9868 166.212 90.974 166.147 90.9477C166.082 90.9214 166.023 90.8822 165.973 90.8324C165.856 90.7064 165.775 90.5509 165.739 90.3824C165.686 90.1749 165.656 89.9621 165.649 89.7479C165.649 89.6669 165.649 89.5769 165.649 89.4779C165.649 89.3789 165.649 89.2754 165.649 89.1674C165.649 89.0594 165.649 88.9604 165.649 88.8569C165.649 88.7534 165.645 88.6814 165.649 88.6004ZM167.566 87.5249C167.576 87.4148 167.564 87.3038 167.53 87.1987C167.496 87.0935 167.441 86.9963 167.368 86.9129C167.251 86.8094 167.089 86.8139 166.896 86.9129C166.686 87.0364 166.519 87.2219 166.419 87.4439C166.291 87.7063 166.224 87.9937 166.221 88.2854C166.221 88.4519 166.221 88.6364 166.221 88.8389C166.221 89.0414 166.221 89.2214 166.221 89.3834C166.211 89.4935 166.223 89.6045 166.257 89.7097C166.291 89.8149 166.346 89.9121 166.419 89.9954C166.536 90.0944 166.698 90.0854 166.896 89.9729C167.103 89.8486 167.267 89.6652 167.368 89.4464C167.496 89.1857 167.564 88.8997 167.566 88.6094C167.566 88.4384 167.566 88.2539 167.566 88.0514C167.566 87.8489 167.571 87.6869 167.566 87.5249Z" fill="#FAFAFA"/>
<path d="M170.1 84.321C170.455 84.1185 170.721 84.087 170.905 84.2355C171.015 84.3559 171.096 84.4991 171.144 84.6547C171.191 84.8103 171.203 84.9745 171.18 85.1355C171.184 85.4411 171.137 85.7453 171.04 86.0355C170.949 86.3058 170.807 86.5562 170.622 86.7735L171.207 88.047C171.209 88.0679 171.209 88.089 171.207 88.11C171.207 88.1505 171.198 88.1906 171.18 88.227C171.168 88.2596 171.146 88.2879 171.117 88.308L170.757 88.515C170.698 88.5465 170.658 88.551 170.631 88.515C170.607 88.4914 170.587 88.464 170.572 88.434L170.019 87.2325L169.456 87.5565V89.0775C169.457 89.1272 169.446 89.1764 169.425 89.2215C169.406 89.2606 169.379 89.2946 169.344 89.3205L169.002 89.5185C168.991 89.528 168.976 89.5332 168.961 89.5332C168.947 89.5332 168.932 89.528 168.921 89.5185C168.908 89.5047 168.898 89.4884 168.892 89.4705C168.886 89.4527 168.883 89.4338 168.885 89.415V85.2075C168.886 85.1574 168.899 85.1083 168.921 85.0635C168.937 85.0227 168.965 84.9881 169.002 84.9645L170.1 84.321ZM169.465 86.742L170.1 86.4C170.255 86.3134 170.388 86.1916 170.487 86.0445C170.591 85.8711 170.641 85.6705 170.631 85.4685C170.631 85.2255 170.581 85.0905 170.487 85.0635C170.35 85.0448 170.211 85.0804 170.1 85.1625L169.488 85.5135L169.465 86.742Z" fill="#FAFAFA"/>
<path d="M173.115 82.5885C173.278 82.482 173.465 82.4171 173.66 82.3995C173.8 82.3943 173.938 82.4444 174.042 82.539C174.161 82.6644 174.244 82.82 174.281 82.989C174.341 83.2122 174.374 83.4419 174.38 83.673C174.38 83.988 174.38 84.312 174.38 84.6405C174.37 84.9085 174.337 85.175 174.281 85.437C174.229 85.6805 174.151 85.9175 174.047 86.1435C173.946 86.3511 173.819 86.5448 173.669 86.7195C173.518 86.8984 173.339 87.0506 173.138 87.1695L172.071 87.75C172.06 87.7596 172.045 87.7648 172.031 87.7648C172.016 87.7648 172.001 87.7596 171.99 87.75C171.977 87.7364 171.967 87.7201 171.961 87.7022C171.954 87.6844 171.952 87.6654 171.954 87.6465V83.439C171.955 83.389 171.968 83.3398 171.99 83.295C172.006 83.2543 172.034 83.2197 172.071 83.196L173.115 82.5885ZM173.808 83.988C173.806 83.8662 173.788 83.7451 173.754 83.628C173.733 83.5394 173.688 83.4584 173.623 83.394C173.595 83.3658 173.562 83.3436 173.524 83.3289C173.487 83.3142 173.447 83.3073 173.408 83.3085C173.295 83.3161 173.186 83.3533 173.093 83.4165L172.526 83.7405V86.6745L173.115 86.337C173.229 86.2706 173.331 86.1854 173.417 86.085C173.5 85.9863 173.571 85.8775 173.628 85.761C173.684 85.6371 173.726 85.5073 173.754 85.374C173.785 85.2351 173.803 85.0934 173.808 84.951C173.822 84.6225 173.822 84.303 173.808 83.988Z" fill="#FAFAFA"/>
<path d="M111.321 17.2755C112.098 17.4483 112.846 17.7301 113.544 18.1125C114.212 18.4717 114.811 18.9472 115.313 19.5165C115.792 20.0642 116.148 20.7088 116.357 21.4065C116.569 22.1533 116.584 22.9424 116.402 23.697C116.281 24.2953 116.044 24.864 115.704 25.371C115.394 25.8045 115.024 26.1923 114.606 26.523C114.195 26.8418 113.757 27.1235 113.297 27.3645L112.001 28.053C111.61 28.2566 111.239 28.4962 110.894 28.7685C110.58 29.0086 110.341 29.3312 110.201 29.7C110.132 29.8685 110.018 30.0149 109.872 30.123C109.803 30.1768 109.722 30.214 109.636 30.232C109.551 30.2499 109.462 30.248 109.377 30.2265L107.469 29.8035C107.377 29.7842 107.29 29.7469 107.213 29.6935C107.135 29.6402 107.07 29.5721 107.019 29.493C106.965 29.4195 106.929 29.3344 106.914 29.2445C106.9 29.1546 106.906 29.0624 106.934 28.9755C107.087 28.3846 107.358 27.8306 107.73 27.3465C108.069 26.9183 108.463 26.5356 108.9 26.208C109.326 25.8961 109.778 25.6206 110.25 25.3845C110.7 25.155 111.15 24.9345 111.542 24.714C111.906 24.5183 112.248 24.2844 112.563 24.0165C112.839 23.7852 113.031 23.4686 113.108 23.1165C113.179 22.8108 113.176 22.4922 113.097 22.1882C113.019 21.8841 112.868 21.6036 112.658 21.3705C112.131 20.796 111.428 20.4142 110.66 20.286C109.238 19.971 108.038 20.4495 107.06 21.7215C106.965 21.8604 106.846 21.9808 106.709 22.077C106.553 22.154 106.374 22.1669 106.209 22.113L104.18 21.663C104.035 21.635 103.907 21.5509 103.824 21.429C103.78 21.3639 103.75 21.29 103.737 21.2123C103.724 21.1347 103.727 21.0551 103.748 20.979C103.92 20.3537 104.241 19.7794 104.684 19.305C105.182 18.7549 105.775 18.2978 106.434 17.955C107.154 17.5781 107.931 17.3198 108.734 17.19C109.593 17.0501 110.472 17.0792 111.321 17.2755ZM109.166 31.7565C109.344 31.7984 109.499 31.9085 109.597 32.0632C109.696 32.218 109.73 32.4051 109.692 32.5845L109.206 34.7895C109.19 34.8818 109.154 34.9696 109.101 35.0472C109.048 35.1247 108.98 35.1903 108.9 35.2395C108.825 35.2914 108.739 35.3271 108.649 35.3441C108.56 35.3612 108.467 35.3593 108.378 35.3385L106.2 34.839C106.107 34.8234 106.019 34.788 105.942 34.7352C105.864 34.6823 105.799 34.6134 105.75 34.533C105.7 34.457 105.665 34.3715 105.649 34.2817C105.633 34.192 105.635 34.0999 105.656 34.011L106.146 31.806C106.188 31.6273 106.298 31.4719 106.452 31.3727C106.607 31.2736 106.794 31.2386 106.974 31.275L109.166 31.7565Z" fill="#8FFA09"/>
<path d="M113.724 38.385C114.266 38.2981 114.817 38.2875 115.362 38.3535C115.882 38.4153 116.388 38.5676 116.856 38.8035C117.302 39.0347 117.694 39.3566 118.008 39.7485C118.29 40.132 118.489 40.5705 118.591 41.0355C118.694 41.5006 118.697 41.9819 118.602 42.4485C118.516 42.8072 118.378 43.1514 118.193 43.47C118.013 43.7799 117.806 44.0722 117.572 44.343C117.342 44.613 117.122 44.8695 116.919 45.117C116.721 45.3476 116.545 45.5961 116.393 45.8595C116.25 46.0903 116.178 46.3578 116.186 46.629C116.182 46.7557 116.146 46.8795 116.082 46.989C116.049 47.0394 116.007 47.0824 115.956 47.115C115.906 47.1476 115.849 47.169 115.79 47.178L114.44 47.394C114.376 47.4054 114.312 47.4042 114.249 47.3903C114.187 47.3763 114.127 47.3501 114.075 47.313C114.022 47.2796 113.977 47.234 113.945 47.18C113.913 47.126 113.894 47.0652 113.891 47.0025C113.834 46.5837 113.865 46.1578 113.981 45.7515C114.086 45.3918 114.238 45.047 114.431 44.7255C114.62 44.4169 114.837 44.1262 115.079 43.857C115.317 43.587 115.529 43.335 115.736 43.092C115.92 42.875 116.08 42.638 116.213 42.3855C116.33 42.1681 116.372 41.9184 116.334 41.6745C116.3 41.4598 116.215 41.2565 116.086 41.0818C115.956 40.907 115.787 40.7661 115.592 40.671C115.108 40.4373 114.56 40.3708 114.035 40.482C113.559 40.5516 113.116 40.7667 112.767 41.0978C112.418 41.4289 112.18 41.8598 112.086 42.3315C112.06 42.4449 112.014 42.553 111.951 42.651C111.871 42.7364 111.762 42.7893 111.645 42.7995L110.223 43.029C110.123 43.0481 110.02 43.0271 109.935 42.9705C109.892 42.9407 109.855 42.902 109.828 42.857C109.801 42.812 109.784 42.7617 109.778 42.7095C109.735 42.2629 109.805 41.8129 109.98 41.4C110.158 40.9195 110.42 40.4746 110.754 40.086C111.12 39.6605 111.551 39.2959 112.032 39.006C112.551 38.6915 113.125 38.4806 113.724 38.385ZM116.046 48.2175C116.108 48.2077 116.171 48.2101 116.232 48.2248C116.293 48.2395 116.351 48.2661 116.402 48.303C116.455 48.3378 116.5 48.3835 116.534 48.4371C116.568 48.4906 116.59 48.5507 116.6 48.6135L116.852 50.157C116.871 50.2822 116.84 50.41 116.766 50.5128C116.692 50.6156 116.581 50.685 116.456 50.706L114.948 50.9535C114.823 50.9728 114.695 50.9421 114.593 50.868C114.54 50.8327 114.496 50.7868 114.463 50.7333C114.429 50.6798 114.408 50.6199 114.399 50.5575L114.147 49.014C114.136 48.952 114.137 48.8884 114.152 48.8272C114.167 48.7659 114.194 48.7085 114.233 48.6585C114.268 48.6063 114.314 48.5621 114.367 48.5288C114.421 48.4954 114.481 48.4737 114.543 48.465L116.046 48.2175Z" fill="#8FFA09"/>
<g opacity="0.2">
<path d="M113.724 38.385C114.266 38.2981 114.817 38.2875 115.362 38.3535C115.882 38.4153 116.388 38.5676 116.856 38.8035C117.302 39.0347 117.694 39.3566 118.008 39.7485C118.29 40.132 118.489 40.5705 118.591 41.0355C118.694 41.5006 118.697 41.9819 118.602 42.4485C118.516 42.8072 118.378 43.1514 118.193 43.47C118.013 43.7799 117.806 44.0722 117.572 44.343C117.342 44.613 117.122 44.8695 116.919 45.117C116.721 45.3476 116.545 45.5961 116.393 45.8595C116.25 46.0903 116.178 46.3578 116.186 46.629C116.182 46.7557 116.146 46.8795 116.082 46.989C116.049 47.0394 116.007 47.0824 115.956 47.115C115.906 47.1476 115.849 47.169 115.79 47.178L114.44 47.394C114.376 47.4054 114.312 47.4042 114.249 47.3903C114.187 47.3763 114.127 47.3501 114.075 47.313C114.022 47.2796 113.977 47.234 113.945 47.18C113.913 47.126 113.894 47.0652 113.891 47.0025C113.834 46.5837 113.865 46.1578 113.981 45.7515C114.086 45.3918 114.238 45.047 114.431 44.7255C114.62 44.4169 114.837 44.1262 115.079 43.857C115.317 43.587 115.529 43.335 115.736 43.092C115.92 42.875 116.08 42.638 116.213 42.3855C116.33 42.1681 116.372 41.9184 116.334 41.6745C116.3 41.4598 116.215 41.2565 116.086 41.0818C115.956 40.907 115.787 40.7661 115.592 40.671C115.108 40.4373 114.56 40.3708 114.035 40.482C113.559 40.5516 113.116 40.7667 112.767 41.0978C112.418 41.4289 112.18 41.8598 112.086 42.3315C112.06 42.4449 112.014 42.553 111.951 42.651C111.871 42.7364 111.762 42.7893 111.645 42.7995L110.223 43.029C110.123 43.0481 110.02 43.0271 109.935 42.9705C109.892 42.9407 109.855 42.902 109.828 42.857C109.801 42.812 109.784 42.7617 109.778 42.7095C109.735 42.2629 109.805 41.8129 109.98 41.4C110.158 40.9195 110.42 40.4746 110.754 40.086C111.12 39.6605 111.551 39.2959 112.032 39.006C112.551 38.6915 113.125 38.4806 113.724 38.385ZM116.046 48.2175C116.108 48.2077 116.171 48.2101 116.232 48.2248C116.293 48.2395 116.351 48.2661 116.402 48.303C116.455 48.3378 116.5 48.3835 116.534 48.4371C116.568 48.4906 116.59 48.5507 116.6 48.6135L116.852 50.157C116.871 50.2822 116.84 50.41 116.766 50.5128C116.692 50.6156 116.581 50.685 116.456 50.706L114.948 50.9535C114.823 50.9728 114.695 50.9421 114.593 50.868C114.54 50.8327 114.496 50.7868 114.463 50.7333C114.429 50.6798 114.408 50.6199 114.399 50.5575L114.147 49.014C114.136 48.952 114.137 48.8884 114.152 48.8272C114.167 48.7659 114.194 48.7085 114.233 48.6585C114.268 48.6063 114.314 48.5621 114.367 48.5288C114.421 48.4954 114.481 48.4737 114.543 48.465L116.046 48.2175Z" fill="black"/>
</g>
<path d="M126.45 40.8105C126.511 40.8532 126.563 40.9079 126.603 40.9714C126.642 41.0348 126.668 41.1056 126.68 41.1795C126.694 41.2527 126.693 41.3281 126.677 41.4009C126.66 41.4737 126.629 41.5424 126.585 41.6025L125.514 43.11C125.471 43.1714 125.417 43.2234 125.353 43.2628C125.29 43.3023 125.219 43.3284 125.145 43.3395C125.072 43.3539 124.996 43.3528 124.924 43.3366C124.851 43.3203 124.782 43.2891 124.722 43.245L123.246 42.1965C123.185 42.1544 123.133 42.0998 123.094 42.0362C123.055 41.9726 123.03 41.9015 123.021 41.8275C123.007 41.7543 123.008 41.6789 123.024 41.6061C123.04 41.5333 123.071 41.4647 123.116 41.4045L124.2 39.897C124.288 39.7748 124.42 39.6921 124.568 39.6669C124.717 39.6416 124.869 39.6758 124.992 39.762L126.45 40.8105ZM132.678 30.6C133.216 30.9772 133.695 31.4322 134.1 31.95C134.495 32.4318 134.799 32.9805 135 33.57C135.187 34.135 135.25 34.7336 135.185 35.325C135.108 35.9558 134.869 36.5559 134.492 37.0665C134.211 37.4794 133.85 37.8315 133.43 38.1015C133.06 38.3333 132.658 38.5092 132.237 38.6235C131.827 38.7307 131.408 38.803 130.986 38.8395L129.789 38.9475C129.43 38.9762 129.075 39.038 128.727 39.132C128.406 39.2048 128.113 39.3671 127.881 39.6C127.776 39.7065 127.644 39.7813 127.499 39.816C127.429 39.8358 127.357 39.8388 127.286 39.8247C127.216 39.8106 127.15 39.7799 127.094 39.735L125.789 38.808C125.664 38.719 125.578 38.5851 125.55 38.4345C125.533 38.3615 125.534 38.2856 125.552 38.2129C125.57 38.1402 125.605 38.0728 125.654 38.016C125.958 37.6205 126.339 37.29 126.774 37.044C127.165 36.8303 127.583 36.6685 128.016 36.5625C128.434 36.4611 128.86 36.3964 129.29 36.369C129.713 36.342 130.109 36.3105 130.478 36.2745C130.815 36.2447 131.149 36.1783 131.472 36.0765C131.755 35.9823 131.998 35.7972 132.165 35.55C132.315 35.3413 132.413 35.0993 132.45 34.8447C132.487 34.5901 132.462 34.3303 132.377 34.0875C132.164 33.4878 131.757 32.9762 131.22 32.634C130.248 31.941 129.188 31.9185 128.039 32.5665C127.923 32.6401 127.795 32.692 127.661 32.7195C127.591 32.7244 127.52 32.7154 127.454 32.693C127.388 32.6706 127.326 32.6352 127.274 32.589L125.888 31.6035C125.837 31.5702 125.794 31.5272 125.761 31.4769C125.728 31.4267 125.705 31.3703 125.694 31.311C125.683 31.2498 125.685 31.187 125.7 31.1266C125.715 31.0662 125.742 31.0095 125.78 30.96C126.107 30.541 126.532 30.2088 127.017 29.9925C127.569 29.7427 128.159 29.5904 128.763 29.5425C129.427 29.487 130.096 29.5402 130.743 29.7C131.441 29.8683 132.099 30.1743 132.678 30.6Z" fill="#8FFA09"/>
<g opacity="0.6">
<path d="M126.45 40.8105C126.511 40.8532 126.563 40.9079 126.603 40.9714C126.642 41.0348 126.668 41.1056 126.68 41.1795C126.694 41.2527 126.693 41.3281 126.677 41.4009C126.66 41.4737 126.629 41.5424 126.585 41.6025L125.514 43.11C125.471 43.1714 125.417 43.2234 125.353 43.2628C125.29 43.3023 125.219 43.3284 125.145 43.3395C125.072 43.3539 124.996 43.3528 124.924 43.3366C124.851 43.3203 124.782 43.2891 124.722 43.245L123.246 42.1965C123.185 42.1544 123.133 42.0998 123.094 42.0362C123.055 41.9726 123.03 41.9015 123.021 41.8275C123.007 41.7543 123.008 41.6789 123.024 41.6061C123.04 41.5333 123.071 41.4647 123.116 41.4045L124.2 39.897C124.288 39.7748 124.42 39.6921 124.568 39.6669C124.717 39.6416 124.869 39.6758 124.992 39.762L126.45 40.8105ZM132.678 30.6C133.216 30.9772 133.695 31.4322 134.1 31.95C134.495 32.4318 134.799 32.9805 135 33.57C135.187 34.135 135.25 34.7336 135.185 35.325C135.108 35.9558 134.869 36.5559 134.492 37.0665C134.211 37.4794 133.85 37.8315 133.43 38.1015C133.06 38.3333 132.658 38.5092 132.237 38.6235C131.827 38.7307 131.408 38.803 130.986 38.8395L129.789 38.9475C129.43 38.9762 129.075 39.038 128.727 39.132C128.406 39.2048 128.113 39.3671 127.881 39.6C127.776 39.7065 127.644 39.7813 127.499 39.816C127.429 39.8358 127.357 39.8388 127.286 39.8247C127.216 39.8106 127.15 39.7799 127.094 39.735L125.789 38.808C125.664 38.719 125.578 38.5851 125.55 38.4345C125.533 38.3615 125.534 38.2856 125.552 38.2129C125.57 38.1402 125.605 38.0728 125.654 38.016C125.958 37.6205 126.339 37.29 126.774 37.044C127.165 36.8303 127.583 36.6685 128.016 36.5625C128.434 36.4611 128.86 36.3964 129.29 36.369C129.713 36.342 130.109 36.3105 130.478 36.2745C130.815 36.2447 131.149 36.1783 131.472 36.0765C131.755 35.9823 131.998 35.7972 132.165 35.55C132.315 35.3413 132.413 35.0993 132.45 34.8447C132.487 34.5901 132.462 34.3303 132.377 34.0875C132.164 33.4878 131.757 32.9762 131.22 32.634C130.248 31.941 129.188 31.9185 128.039 32.5665C127.923 32.6401 127.795 32.692 127.661 32.7195C127.591 32.7244 127.52 32.7154 127.454 32.693C127.388 32.6706 127.326 32.6352 127.274 32.589L125.888 31.6035C125.837 31.5702 125.794 31.5272 125.761 31.4769C125.728 31.4267 125.705 31.3703 125.694 31.311C125.683 31.2498 125.685 31.187 125.7 31.1266C125.715 31.0662 125.742 31.0095 125.78 30.96C126.107 30.541 126.532 30.2088 127.017 29.9925C127.569 29.7427 128.159 29.5904 128.763 29.5425C129.427 29.487 130.096 29.5402 130.743 29.7C131.441 29.8683 132.099 30.1743 132.678 30.6Z" fill="white"/>
</g>
<path d="M92.9385 80.6445H76.95V41.9085C76.95 38.5441 78.2865 35.3175 80.6654 32.9385C83.0444 30.5595 86.271 29.223 89.6355 29.223H91.1115C94.4759 29.223 97.7025 30.5595 100.081 32.9385C102.46 35.3175 103.797 38.5441 103.797 41.9085V69.8085C103.791 72.6845 102.644 75.4406 100.609 77.4721C98.5729 79.5036 95.8144 80.6445 92.9385 80.6445Z" fill="#263238"/>
<path d="M75.393 173.898C75.1102 175.503 74.9596 177.128 74.943 178.758C74.8845 181.71 74.3445 182.758 74.2725 185.179C74.187 187.947 74.6685 188.982 75.789 190.539C76.9095 192.096 79.839 193.504 81.108 190.876C82.377 188.248 82.1925 186.525 81.792 183.811C81.3825 181.003 81.342 179.451 81.09 177.313C80.883 175.428 80.64 173.992 80.64 173.992L75.393 173.898Z" fill="#263238"/>
<path d="M83.772 154.291L74.052 154.116C74.196 160.605 75.2265 167.809 75.402 173.916C75.438 175.063 75.375 182.821 75.807 185.166C76.4595 188.712 80.6625 188.23 80.8875 186.111C81.1125 183.991 80.6175 174.933 80.631 173.997C80.5905 170.091 82.431 163.498 83.3805 156.487C83.421 156.15 83.727 154.629 83.772 154.291Z" fill="#FFA8A7"/>
<path d="M96.2594 168.849C96.2594 168.849 95.8769 168.642 95.8094 169.051C95.7149 169.537 95.5709 170.541 95.3594 171.342C95.0804 172.453 94.8464 174.285 95.0129 175.194C95.1794 176.103 97.2944 177.264 98.6669 177.687C100.358 178.209 101.901 179.127 103.167 180.364C104.517 181.642 107.455 182.848 109.467 182.835C111.829 182.835 113.476 182.047 114.255 180.783C115.033 179.518 113.544 179.365 110.844 177.633L108.751 176.283C104.472 173.488 102.901 171.994 101.7 169.2L96.2594 168.849Z" fill="#263238"/>
<path d="M101.736 167.116C101.664 165.109 103.05 148.05 103.05 148.05L93.8204 152.257C95.7959 164.056 96.2189 166.842 96.2504 168.772C96.21 168.934 96.1933 169.101 96.2009 169.267C96.2009 171.558 98.7974 172.795 100.813 174.325C102.527 175.668 104.353 176.86 106.272 177.889C107.739 178.623 110.718 178.69 111.087 177.75C108.63 175.873 105.057 173.065 103.104 170.923C102.15 169.915 101.808 169.128 101.736 167.116Z" fill="#FFA8A7"/>
<path d="M78.0344 90.9719C74.4884 98.7524 74.4884 104.773 75.0779 114.705C75.5999 123.817 76.4684 131.85 76.4684 131.85C76.3334 133.465 74.0879 136.62 73.7954 143.766C73.5254 150.444 74.2454 158.935 74.2454 158.935C74.2454 158.935 79.2899 161.73 83.0204 158.908C83.0204 158.908 86.6204 141.723 87.6734 133.362C88.5734 126.067 90.1934 116.748 90.1934 116.748L93.5999 133.312C92.8647 135.663 92.3318 138.071 92.0069 140.512C91.5299 145.431 94.2839 155.088 94.2839 155.088C94.2839 155.088 99.4949 156.64 102.676 153.819C102.676 153.819 103.864 138.118 104.31 132.196C104.904 124.263 103.653 102.789 102.676 91.4174L78.0344 90.9719Z" fill="#455A64"/>
<path d="M90.2024 116.734L91.6019 104.251C91.6019 104.251 97.8749 103.414 100.719 100.741C99.9049 102.015 98.8205 103.094 97.5427 103.901C96.2649 104.708 94.8251 105.224 93.3254 105.412L91.3004 117.027L93.5999 133.312L90.2024 116.734Z" fill="#263238"/>
<path d="M115.605 87.903C115.864 85.6251 115.978 83.3329 115.947 81.0405C115.807 79.0605 115.452 78.7365 112.684 75.231C108.949 70.4925 105.759 66.231 102.384 61.9965C99.9719 58.9725 97.4339 58.509 94.9679 58.644C93.2399 58.7385 96.6149 67.05 98.3114 71.9685L108 82.3995C108.3 82.8112 108.438 83.3191 108.387 83.826L107.802 92.7L110.704 96.588C110.704 96.588 115.101 92.799 115.605 87.903Z" fill="#FFA8A7"/>
<path d="M85.626 58.914C83.7495 59.0445 80.3385 59.364 80.3385 59.364C78.372 60.462 77.8725 61.3665 77.508 63.9765C77.3505 65.0925 78.2595 68.058 79.038 72.2745L80.514 80.091L80.352 83.97C79.587 86.337 77.8545 89.2755 76.3245 93.609C83.8395 97.803 90.1395 97.9605 95.8545 97.209C100.21 96.6465 102.519 95.5935 103.288 94.5495C103.126 90.27 102.838 87.624 102.748 83.151C102.717 81.2745 102.829 79.3755 102.906 77.2155C105.826 74.8125 105.862 70.8165 104.256 68.2155C100.552 62.217 96.948 58.4415 94.563 58.635L85.626 58.914Z" fill="#8FFA09"/>
<path opacity="0.6" d="M85.626 58.914C83.7495 59.0445 80.3385 59.364 80.3385 59.364C78.372 60.462 77.8725 61.3665 77.508 63.9765C77.3505 65.0925 78.2595 68.058 79.038 72.2745L80.514 80.091L80.352 83.97C79.587 86.337 77.8545 89.2755 76.3245 93.609C83.8395 97.803 90.1395 97.9605 95.8545 97.209C100.21 96.6465 102.519 95.5935 103.288 94.5495C103.126 90.27 102.838 87.624 102.748 83.151C102.717 81.2745 102.829 79.3755 102.906 77.2155C105.826 74.8125 105.862 70.8165 104.256 68.2155C100.552 62.217 96.948 58.4415 94.563 58.635L85.626 58.914Z" fill="white"/>
<path opacity="0.1" d="M97.0874 77.2739C97.0874 77.2739 93.6584 79.9379 89.7389 78.5474C88.6383 78.2006 87.6458 77.5756 86.8574 76.7329C86.0691 75.8902 85.5116 74.8582 85.2389 73.7369C85.2389 73.7369 84.8249 78.2144 89.7614 79.7399C94.5449 81.2114 97.0874 77.2739 97.0874 77.2739Z" fill="black"/>
<path d="M101.74 46.6245C101.592 53.1225 99.4904 54.7245 98.4284 55.1745C97.3664 55.6245 95.3324 55.3545 93.3524 55.026V58.95C93.3524 58.95 95.6384 61.344 95.4674 63.1305C95.2964 64.917 91.8674 65.1195 89.3114 63.369C87.9011 62.4003 86.6254 61.2487 85.5179 59.9445C85.3052 59.6929 85.1888 59.374 85.1894 59.0445V49.8645C85.1894 49.8645 84.1049 51.012 82.1879 49.698C81.7743 49.4341 81.4201 49.0869 81.1479 48.6786C80.8757 48.2704 80.6914 47.81 80.6067 47.3266C80.5221 46.8433 80.5389 46.3477 80.6562 45.8712C80.7735 45.3947 80.9886 44.9479 81.2879 44.559C82.1249 43.5735 84.2489 43.506 85.2659 45.009C85.8419 46.1295 85.9184 47.259 86.5619 46.809C88.2719 45.576 87.3539 42.759 89.4194 41.409C90.0972 41.0553 90.8013 40.7544 91.5254 40.509C95.2109 39.2355 98.4059 38.1645 99.1754 35.6445C100.624 36.4725 101.92 38.961 101.74 46.6245Z" fill="#FFA8A7"/>
<path d="M94.4729 52.4295C94.9451 52.4295 95.3279 52.0467 95.3279 51.5745C95.3279 51.1023 94.9451 50.7195 94.4729 50.7195C94.0007 50.7195 93.6179 51.1023 93.6179 51.5745C93.6179 52.0467 94.0007 52.4295 94.4729 52.4295Z" fill="#B16668"/>
<path d="M93.906 45.6389C93.9057 45.815 93.8539 45.9871 93.7568 46.1339C93.6598 46.2808 93.5218 46.396 93.36 46.4652C93.1981 46.5345 93.0195 46.5547 92.8463 46.5235C92.673 46.4923 92.5127 46.4109 92.3853 46.2895C92.2578 46.1681 92.1687 46.012 92.1291 45.8405C92.0894 45.669 92.101 45.4896 92.1622 45.3245C92.2235 45.1595 92.3318 45.0161 92.4738 44.912C92.6158 44.8079 92.7851 44.7477 92.961 44.7389C93.0829 44.7328 93.2048 44.7516 93.3192 44.7941C93.4337 44.8366 93.5382 44.9019 93.6266 44.9861C93.715 45.0703 93.7854 45.1715 93.8334 45.2838C93.8814 45.396 93.9061 45.5168 93.906 45.6389Z" fill="#263238"/>
<path d="M100.723 45.729C100.733 45.8391 100.72 45.9499 100.686 46.055C100.652 46.1601 100.597 46.2574 100.525 46.3411C100.453 46.4249 100.365 46.4935 100.266 46.5429C100.167 46.5923 100.06 46.6216 99.9494 46.629C99.8382 46.6392 99.726 46.6257 99.6204 46.5893C99.5148 46.553 99.4182 46.4945 99.3369 46.4179C99.2556 46.3413 99.1915 46.2483 99.1489 46.145C99.1064 46.0417 99.0862 45.9306 99.0899 45.819C99.0783 45.708 99.0895 45.5959 99.1227 45.4895C99.156 45.383 99.2106 45.2845 99.2833 45.1999C99.3559 45.1153 99.4451 45.0465 99.5454 44.9976C99.6456 44.9487 99.7547 44.9208 99.8661 44.9156C99.9775 44.9104 100.089 44.9279 100.193 44.9673C100.298 45.0066 100.393 45.0668 100.473 45.1442C100.553 45.2216 100.617 45.3146 100.66 45.4175C100.703 45.5204 100.725 45.631 100.723 45.7425V45.729Z" fill="#263238"/>
<path d="M92.7494 47.952C91.9733 47.952 91.2288 47.6439 90.6796 47.0955C90.1303 46.5471 89.8211 45.8031 89.8199 45.027C89.8199 43.038 91.8719 43.038 92.7494 43.038C93.6269 43.038 95.6744 43.038 95.6744 45.027C95.6733 45.8024 95.3647 46.5457 94.8164 47.0939C94.2681 47.6422 93.5248 47.9508 92.7494 47.952ZM92.7494 43.497C90.9494 43.497 90.2834 43.947 90.2834 45.027C90.2834 45.6834 90.5442 46.3129 91.0084 46.7771C91.4725 47.2412 92.102 47.502 92.7584 47.502C93.4149 47.502 94.0444 47.2412 94.5085 46.7771C94.9727 46.3129 95.2334 45.6834 95.2334 45.027C95.2154 43.9245 94.5224 43.497 92.7494 43.497Z" fill="#455A64"/>
<path d="M100.179 47.952C99.4028 47.952 98.6584 47.6439 98.1091 47.0955C97.5599 46.5471 97.2507 45.8031 97.2495 45.027C97.2495 43.038 99.3015 43.038 100.179 43.038C101.057 43.038 103.104 43.038 103.104 45.027C103.103 45.8024 102.794 46.5457 102.246 47.0939C101.698 47.6422 100.954 47.9508 100.179 47.952ZM100.179 43.497C98.406 43.497 97.713 43.947 97.713 45.027C97.713 45.6834 97.9738 46.3129 98.4379 46.7771C98.9021 47.2412 99.5316 47.502 100.188 47.502C100.844 47.502 101.474 47.2412 101.938 46.7771C102.402 46.3129 102.663 45.6834 102.663 45.027C102.645 43.9245 101.952 43.497 100.179 43.497Z" fill="#455A64"/>
<path d="M96.1289 44.082L96.2729 49.5495L99.1484 48.6585L96.1289 44.082Z" fill="#F28F8F"/>
<path d="M93.348 55.0394C91.26 54.7649 86.9625 53.5319 86.292 51.8309C86.5619 52.6906 87.0878 53.4473 87.7995 53.9999C89.082 55.1024 93.348 56.3399 93.348 56.3399V55.0394Z" fill="#F28F8F"/>
<path d="M93.4515 41.427L91.5435 42.5925C91.3931 42.3306 91.3494 42.0208 91.4215 41.7275C91.4936 41.4342 91.6759 41.1799 91.9305 41.0175C92.0564 40.9411 92.1964 40.8911 92.3422 40.8703C92.488 40.8496 92.6364 40.8587 92.7786 40.8969C92.9208 40.9352 93.0537 41.0019 93.1694 41.093C93.285 41.1841 93.381 41.2978 93.4515 41.427Z" fill="#263238"/>
<path d="M101.214 42.723L99.09 41.9805C99.1311 41.8398 99.2005 41.7089 99.2941 41.596C99.3876 41.483 99.5033 41.3904 99.634 41.3238C99.7646 41.2572 99.9075 41.2181 100.054 41.2087C100.2 41.1994 100.347 41.2201 100.485 41.2695C100.77 41.3719 101.004 41.5799 101.14 41.8505C101.276 42.1211 101.302 42.4335 101.214 42.723Z" fill="#263238"/>
<path d="M95.445 45.261C95.4145 45.261 95.3843 45.2549 95.3561 45.2431C95.328 45.2313 95.3025 45.214 95.2811 45.1922C95.2597 45.1704 95.2429 45.1446 95.2317 45.1162C95.2204 45.0879 95.2149 45.0575 95.2155 45.027C95.2155 44.6535 95.9535 44.4105 96.6195 44.4105C97.2855 44.4105 97.713 44.6535 97.713 45.027C97.699 45.0759 97.6695 45.1189 97.6289 45.1496C97.5883 45.1802 97.5389 45.1967 97.488 45.1967C97.4371 45.1967 97.3877 45.1802 97.3471 45.1496C97.3065 45.1189 97.277 45.0759 97.263 45.027C97.263 44.982 97.0335 44.8695 96.633 44.8695C96.3105 44.8627 95.9898 44.9177 95.688 45.0315C95.6881 45.0628 95.6817 45.0938 95.6693 45.1226C95.657 45.1513 95.6388 45.1773 95.6161 45.1988C95.5933 45.2203 95.5664 45.2369 95.537 45.2476C95.5076 45.2583 95.4763 45.2629 95.445 45.261Z" fill="#455A64"/>
<path d="M90.0585 45.063H90.0315L84.888 44.613C84.6477 44.3748 84.3614 44.188 84.0465 44.064L90.0855 44.622C90.1461 44.6299 90.2011 44.6611 90.239 44.709C90.2768 44.7569 90.2944 44.8177 90.288 44.8785C90.2775 44.9313 90.2487 44.9787 90.2067 45.0124C90.1648 45.0461 90.1123 45.064 90.0585 45.063Z" fill="#455A64"/>
<path d="M68.9399 50.427C70.623 48.177 71.7704 46.4805 73.3049 44.577C74.1779 43.4835 74.7359 42.7005 75.5549 41.58C76.1309 40.806 76.455 40.1535 77.112 39.915C77.8218 39.6241 78.4615 39.1854 78.9885 38.628C79.3124 38.2696 79.613 37.8908 79.8885 37.494C80.853 36.1958 81.9986 35.0425 83.2905 34.0695C84.6404 33.0525 86.148 32.2695 87.5385 31.302C88.3665 30.7215 89.253 29.7585 88.245 28.8585C87.9358 28.5981 87.5658 28.4201 87.1695 28.341C84.717 27.81 82.584 28.6515 80.1855 29.2635C79.1436 29.5235 78.1247 29.8682 77.139 30.294C76.6541 30.4857 76.1994 30.7464 75.7889 31.068C75.2151 31.6466 74.7448 32.3193 74.3985 33.057C73.35 34.929 71.1 36.603 69.525 38.0835C67.6845 39.816 66.0375 41.4045 63.936 43.3125C62.046 45.036 60.1965 46.62 58.464 48.501C57.0285 50.0535 57.5639 51.2685 57.7529 51.6915C58.9229 54.0945 60.2324 54.9585 61.8029 56.448C64.503 59.0265 73.8405 66.447 76.932 68.8995C77.5962 69.4212 78.1178 70.1023 78.4485 70.8795L79.0424 72.252C82.5704 72.9 84.924 67.6035 82.0035 61.227C81.5198 60.1959 80.781 59.3053 79.857 58.6395C76.167 55.953 68.9399 50.427 68.9399 50.427Z" fill="#FFA8A7"/>
<path d="M68.9399 50.427C67.817 51.8084 66.3205 52.8378 64.6289 53.3925C64.6289 53.3925 66.8789 53.9685 69.9614 51.201L68.9399 50.427Z" fill="#F28F8F"/>
<path d="M114.687 83.2094L114.111 82.7144C114.025 82.6577 113.927 82.6221 113.824 82.6103C113.722 82.5986 113.618 82.6112 113.521 82.6469L107.271 84.3479C106.956 84.4529 106.668 84.6247 106.425 84.8515C106.183 85.0782 105.992 85.3547 105.867 85.6619L101.367 98.6354C101.313 98.7412 101.291 98.8607 101.306 98.9786C101.32 99.0965 101.37 99.2074 101.448 99.2969L102.042 99.8099C102.128 99.8695 102.228 99.9072 102.332 99.9198C102.437 99.9323 102.542 99.9193 102.64 99.8819L108.9 98.1809C109.215 98.076 109.503 97.9042 109.746 97.6774C109.988 97.4506 110.178 97.1742 110.304 96.8669C111.204 94.3154 113.904 86.4449 114.804 83.8934C114.912 83.5739 114.858 83.3309 114.687 83.2094Z" fill="#455A64"/>
<path d="M101.956 99.135L106.456 86.1615C106.582 85.8545 106.772 85.5783 107.014 85.3522C107.257 85.1261 107.545 84.9554 107.86 84.852L114.106 83.151C114.687 82.9935 115.006 83.3265 114.799 83.8935C113.899 86.445 111.199 94.3155 110.299 96.867C110.174 97.1742 109.983 97.4507 109.741 97.6775C109.499 97.9043 109.21 98.076 108.895 98.181L102.649 99.9C102.073 100.035 101.763 99.702 101.956 99.135Z" fill="#8FFA09"/>
<path d="M107.181 85.212C106.856 85.4581 106.604 85.7878 106.452 86.166L101.952 99.135C101.9 99.238 101.879 99.3534 101.89 99.4681C101.901 99.5827 101.945 99.6919 102.015 99.783L101.457 99.306C101.377 99.2176 101.326 99.1068 101.311 98.9886C101.295 98.8704 101.317 98.7503 101.371 98.6445L105.871 85.671C106.014 85.3183 106.245 85.0083 106.542 84.771L107.181 85.212Z" fill="#37474F"/>
<path d="M112.972 89.1225C112.522 90.441 110.961 91.323 108.378 91.935C105.795 92.547 104.368 95.2875 104.778 96.12C105.187 96.9525 109.363 97.731 111.033 97.4924C112.702 97.254 114.376 94.842 114.885 94.095C115.393 93.348 115.978 88.137 115.443 87.4215C114.907 86.706 113.778 86.8184 113.778 86.8184L112.972 89.1225Z" fill="#F28F8F"/>
</svg>
