<svg width="51" height="36" viewBox="0 0 51 36" fill="none" xmlns="http://www.w3.org/2000/svg">
<path fill-rule="evenodd" clip-rule="evenodd" d="M14.0751 0.665527C10.7417 1.37497 8.26823 2.73558 5.64177 5.30426C2.92557 7.96053 1.44821 10.6914 0.657808 14.5159C-0.857278 21.8459 3.05365 29.8259 9.77236 33.1128C12.2278 34.3143 15.5099 35.1892 17.5976 35.1992C19.015 35.2058 22.5758 34.4689 24.1523 33.8425C25.2837 33.3931 25.4514 33.4009 26.9084 33.9712C27.7614 34.3049 29.5966 34.7377 30.9866 34.9328C38.8727 36.0397 46.8643 31.0361 49.6064 23.2745C50.3977 21.035 50.5793 16.2136 49.9693 13.644C47.8275 4.62351 38.8094 -1.23418 29.9115 0.615693C28.5996 0.888418 27.0644 1.33027 26.4998 1.59756C25.5515 2.04667 25.3854 2.04486 24.3215 1.57431C22.7845 0.89476 19.238 0.17565 17.5413 0.199811C16.7883 0.210382 15.2285 0.419984 14.0751 0.665527ZM15.3645 4.70656C13.6008 5.00224 10.3924 6.53077 9.15294 7.66606C6.02298 10.5325 4.72238 13.4739 4.72694 17.6756C4.7315 21.9459 5.78416 24.4273 8.78756 27.2473C10.6829 29.0268 12.233 29.8851 14.7058 30.5245C16.6767 31.034 19.2401 31.1216 19.51 30.6885C19.6083 30.5302 19.1969 29.7607 18.5952 28.9782C16.593 26.3741 15.3152 23.2479 14.937 20.0278L14.7332 18.2912H19.4838H24.2344V20.8583V23.4255H22.8654C22.1124 23.4255 21.4963 23.5409 21.4963 23.6822C21.4963 24.3291 24.9062 28.2578 25.4675 28.2578C25.8317 28.2578 28.4134 25.3618 28.9254 24.379L29.4219 23.4255H27.9692L26.5162 23.4252L26.4949 20.8583L26.4739 18.2912H31.2866C35.1978 18.2912 36.0996 18.37 36.0996 18.7119C36.0996 18.9432 35.8799 20.2005 35.6116 21.5056C35.0658 24.1588 33.2888 27.8468 31.7977 29.4209C30.5412 30.7477 30.9851 31.0627 33.8178 30.8531C38.7449 30.4889 42.8904 27.6801 44.9507 23.3095C48.6675 15.4241 43.7103 6.03938 35.1005 4.66307C34.077 4.49938 32.7235 4.45196 32.0928 4.55797L30.9459 4.75036L32.1464 6.32872C33.5054 8.11547 35.0049 11.2423 35.3122 12.9303L35.5188 14.0629H32.9115C30.3438 14.0629 30.2994 14.0502 29.9994 13.2323C29.3599 11.4896 28.5944 10.2846 27.1119 8.68629C25.665 7.12635 25.5387 7.05659 24.8831 7.45193C23.8791 8.05778 21.6393 11.104 21.0263 12.6971L20.5009 14.0629H17.8257H15.1503L15.7229 12.0753C16.3529 9.88803 17.395 7.92943 18.9444 6.01975L19.9566 4.7721L19.0153 4.58515C17.9079 4.36528 17.2757 4.38642 15.3645 4.70656Z" fill="white"/>
</svg>
