<svg width="40" height="40" viewBox="0 0 40 40" fill="none" xmlns="http://www.w3.org/2000/svg">
<circle cx="20.2868" cy="19.9187" r="19.5925" fill="black"/>
<path d="M18.5552 16.2614C19.5111 15.4246 21.0622 15.4246 22.0181 16.2614C22.9749 17.0981 22.9749 18.4549 22.0181 19.2917C21.8524 19.4378 21.6671 19.5578 21.4712 19.6525C20.863 19.9472 20.2875 20.468 20.2875 21.144V21.7562M27.6338 19.9195C27.6338 20.8843 27.4438 21.8397 27.0746 22.7311C26.7053 23.6225 26.1641 24.4324 25.4819 25.1147C24.7996 25.7969 23.9897 26.3381 23.0983 26.7074C22.2069 27.0766 21.2515 27.2666 20.2866 27.2666C19.3218 27.2666 18.3664 27.0766 17.475 26.7074C16.5836 26.3381 15.7736 25.7969 15.0914 25.1147C14.4091 24.4324 13.868 23.6225 13.4987 22.7311C13.1295 21.8397 12.9395 20.8843 12.9395 19.9195C12.9395 17.9709 13.7135 16.1021 15.0914 14.7242C16.4693 13.3463 18.338 12.5723 20.2866 12.5723C22.2352 12.5723 24.104 13.3463 25.4819 14.7242C26.8597 16.1021 27.6338 17.9709 27.6338 19.9195ZM20.2866 24.2053H20.2932V24.2118H20.2866V24.2053Z" stroke="#8FFA09" stroke-width="1.22453" stroke-linecap="round" stroke-linejoin="round"/>
</svg>
