<svg width="25" height="24" viewBox="0 0 25 24" fill="none" xmlns="http://www.w3.org/2000/svg">
<path d="M11.2642 4.40992C11.558 4.146 11.9389 4 12.3338 4C12.7287 4 13.1097 4.146 13.4034 4.40992L19.2716 9.68272C19.4384 9.83276 19.5719 10.0162 19.6632 10.2212C19.7546 10.4261 19.8018 10.648 19.8019 10.8724V18.3996C19.8019 18.824 19.6332 19.2311 19.3331 19.5313C19.033 19.8314 18.6259 20 18.2015 20H15.5341C15.1097 20 14.7026 19.8314 14.4025 19.5313C14.1023 19.2311 13.9337 18.824 13.9337 18.3996V14.6653C13.9337 14.5238 13.8775 14.3881 13.7775 14.2881C13.6774 14.1881 13.5417 14.1319 13.4002 14.1319H11.2664C11.1249 14.1319 10.9892 14.1881 10.8891 14.2881C10.7891 14.3881 10.7329 14.5238 10.7329 14.6653V18.3996C10.7329 18.824 10.5643 19.2311 10.2641 19.5313C9.96401 19.8314 9.55695 20 9.13249 20H6.46515C6.0407 20 5.63363 19.8314 5.33349 19.5313C5.03336 19.2311 4.86475 18.824 4.86475 18.3996V10.8724C4.86475 10.4189 5.05679 9.9868 5.39608 9.68272L11.2642 4.40992ZM12.6897 5.20373C12.5918 5.11585 12.4649 5.06724 12.3333 5.06724C12.2018 5.06724 12.0748 5.11585 11.9769 5.20373L6.10879 10.4765C6.0532 10.5264 6.00871 10.5874 5.9782 10.6556C5.94769 10.7238 5.93184 10.7977 5.93168 10.8724V18.3996C5.93168 18.5411 5.98789 18.6768 6.08793 18.7768C6.18798 18.8769 6.32367 18.9331 6.46515 18.9331H9.13249C9.27398 18.9331 9.40967 18.8769 9.50971 18.7768C9.60976 18.6768 9.66596 18.5411 9.66596 18.3996V14.6653C9.66596 14.2409 9.83457 13.8338 10.1347 13.5337C10.4348 13.2335 10.8419 13.0649 11.2664 13.0649H13.4002C13.8247 13.0649 14.2318 13.2335 14.5319 13.5337C14.832 13.8338 15.0006 14.2409 15.0006 14.6653V18.3996C15.0006 18.5411 15.0568 18.6768 15.1569 18.7768C15.2569 18.8769 15.3926 18.9331 15.5341 18.9331H18.2015C18.3429 18.9331 18.4786 18.8769 18.5787 18.7768C18.6787 18.6768 18.7349 18.5411 18.7349 18.3996V10.8724C18.7348 10.7977 18.7189 10.7238 18.6884 10.6556C18.6579 10.5874 18.6134 10.5264 18.5578 10.4765L12.6897 5.20373Z" fill="white"/>
</svg>
