<svg width="12" height="4" viewBox="0 0 12 4" fill="none" xmlns="http://www.w3.org/2000/svg">
<path d="M1.32386 3.125C0.979167 3.125 0.683712 3.00379 0.4375 2.76136C0.191288 2.51894 0.0700758 2.22348 0.0738636 1.875C0.0700758 1.53409 0.191288 1.24242 0.4375 1C0.683712 0.757576 0.979167 0.636364 1.32386 0.636364C1.6572 0.636364 1.94697 0.757576 2.19318 1C2.44318 1.24242 2.57008 1.53409 2.57386 1.875C2.57008 2.10606 2.50947 2.31629 2.39205 2.50568C2.27841 2.69508 2.12689 2.84659 1.9375 2.96023C1.75189 3.07008 1.54735 3.125 1.32386 3.125ZM5.96449 3.125C5.61979 3.125 5.32434 3.00379 5.07812 2.76136C4.83191 2.51894 4.7107 2.22348 4.71449 1.875C4.7107 1.53409 4.83191 1.24242 5.07812 1C5.32434 0.757576 5.61979 0.636364 5.96449 0.636364C6.29782 0.636364 6.58759 0.757576 6.83381 1C7.08381 1.24242 7.2107 1.53409 7.21449 1.875C7.2107 2.10606 7.15009 2.31629 7.03267 2.50568C6.91903 2.69508 6.76752 2.84659 6.57812 2.96023C6.39252 3.07008 6.18797 3.125 5.96449 3.125ZM10.6051 3.125C10.2604 3.125 9.96496 3.00379 9.71875 2.76136C9.47254 2.51894 9.35133 2.22348 9.35511 1.875C9.35133 1.53409 9.47254 1.24242 9.71875 1C9.96496 0.757576 10.2604 0.636364 10.6051 0.636364C10.9384 0.636364 11.2282 0.757576 11.4744 1C11.7244 1.24242 11.8513 1.53409 11.8551 1.875C11.8513 2.10606 11.7907 2.31629 11.6733 2.50568C11.5597 2.69508 11.4081 2.84659 11.2188 2.96023C11.0331 3.07008 10.8286 3.125 10.6051 3.125Z" fill="black"/>
</svg>
