<svg width="24" height="24" viewBox="0 0 24 24" fill="none" xmlns="http://www.w3.org/2000/svg">
<g id="icons/duotone/ic-bell">
<path id="secondary-shape" opacity="0.32" d="M18.7501 8.99023V9.69423C18.7501 10.5392 18.9901 11.3652 19.4421 12.0682L20.5501 13.7912C21.5611 15.3652 20.7891 17.5042 19.0301 18.0012C14.4338 19.3032 9.56631 19.3032 4.97006 18.0012C3.21106 17.5042 2.43906 15.3652 3.45006 13.7912L4.55806 12.0682C5.01164 11.3596 5.25217 10.5356 5.25106 9.69423V8.99023C5.25106 5.12423 8.27306 1.99023 12.0001 1.99023C15.7271 1.99023 18.7501 5.12423 18.7501 8.99023Z" fill="white"/>
<path id="primary-shape" d="M12.7502 5.99023C12.7502 5.79132 12.6711 5.60056 12.5305 5.4599C12.3898 5.31925 12.1991 5.24023 12.0002 5.24023C11.8013 5.24023 11.6105 5.31925 11.4698 5.4599C11.3292 5.60056 11.2502 5.79132 11.2502 5.99023V9.99023C11.2502 10.1891 11.3292 10.3799 11.4698 10.5206C11.6105 10.6612 11.8013 10.7402 12.0002 10.7402C12.1991 10.7402 12.3898 10.6612 12.5305 10.5206C12.6711 10.3799 12.7502 10.1891 12.7502 9.99023V5.99023ZM7.24316 18.5352C7.56991 19.5393 8.20605 20.4143 9.06046 21.0348C9.91487 21.6553 10.9437 21.9894 11.9997 21.9894C13.0556 21.9894 14.0845 21.6553 14.9389 21.0348C15.7933 20.4143 16.4294 19.5393 16.7562 18.5352C13.6112 19.1252 10.3892 19.1252 7.24316 18.5352Z" fill="white"/>
</g>
</svg>
