<svg width="25" height="24" viewBox="0 0 25 24" fill="none" xmlns="http://www.w3.org/2000/svg">
<path d="M15.3657 7.19993C15.3657 8.69106 14.1569 9.89986 12.6658 9.89986C11.1746 9.89986 9.96582 8.69106 9.96582 7.19993C9.96582 5.7088 11.1746 4.5 12.6658 4.5C14.1569 4.5 15.3657 5.7088 15.3657 7.19993Z" stroke="white"/>
<path d="M18.5661 16.4002C18.5661 17.4376 18.5392 18.0784 17.9504 18.558C17.6367 18.8134 17.1238 19.0537 16.2669 19.2271C15.4123 19.4001 14.249 19.5001 12.6662 19.5001C11.0834 19.5001 9.92011 19.4001 9.0655 19.2271C8.20868 19.0537 7.69576 18.8134 7.38207 18.558C6.79323 18.0784 6.76636 17.4376 6.76636 16.4002C6.76636 15.6671 7.30001 14.9015 8.38605 14.2906C9.4564 13.6885 10.9687 13.3003 12.6662 13.3003C14.3638 13.3003 15.876 13.6885 16.9464 14.2906C18.0324 14.9015 18.5661 15.6671 18.5661 16.4002Z" stroke="white"/>
</svg>
