<svg width="25" height="24" viewBox="0 0 25 24" fill="none" xmlns="http://www.w3.org/2000/svg">
<g clip-path="url(#clip0_171_1852)">
<path d="M15.1343 15.5696L15.7627 16.2907M12.2499 14.5292C12.0954 14.354 12.1263 14.0862 12.3323 13.9317L14.3102 12.4277C14.5059 12.2732 14.784 12.3144 14.9077 12.5101L15.2476 13.0458C15.4948 13.4372 15.6288 13.8802 15.6391 14.3334L15.6494 14.6219C15.6597 14.8897 15.5257 15.1575 15.2991 15.3327L14.8665 15.6623C14.6398 15.8374 14.3514 15.8889 14.0939 15.8065L13.8157 15.7241C13.3728 15.5902 12.9813 15.343 12.6826 15.003L12.2499 14.5292Z" stroke="white" stroke-linecap="round" stroke-linejoin="round"/>
<path d="M9.33472 7.95703L10.0146 8.90475M12.6105 10.9856L13.2904 11.9333M11.189 12.0157L11.8688 12.9635M13.0329 10.0688C13.1874 10.2542 13.1462 10.5427 12.9402 10.6972L10.8181 12.2321C10.6121 12.3866 10.3236 12.3351 10.1897 12.1291L9.83948 11.5625C9.59225 11.1504 9.45833 10.6766 9.45833 10.1924V9.89368C9.45833 9.60524 9.60255 9.32711 9.83948 9.15198L10.303 8.81204C10.5503 8.62662 10.8593 8.58541 11.1271 8.66782L11.4156 8.76053C11.8791 8.91505 12.2809 9.19319 12.6002 9.55373L13.0329 10.0688Z" stroke="white" stroke-linecap="round" stroke-linejoin="round"/>
<path d="M9.57162 15.9097C8.92264 16.4041 8.16034 16.7235 7.35684 16.8677C6.55334 17.0016 5.72923 16.9501 4.94633 16.7029C4.16343 16.4659 3.45264 16.0436 2.87577 15.4667C2.28859 14.9001 1.85594 14.1894 1.59841 13.4168C1.34087 12.6442 1.26876 11.8201 1.39238 11.0166C1.516 10.213 1.82503 9.44045 2.3092 8.78117C2.78306 8.12188 3.41144 7.57591 4.13253 7.20507C4.86392 6.83422 5.66742 6.6591 6.48123 6.6385C8.12944 6.59729 8.6548 7.12266 9.25228 7.86435" stroke="white" stroke-linecap="round"/>
<path d="M14.8354 8.28639C15.4535 7.76102 16.1952 7.37987 16.9884 7.19445C17.7816 7.00902 18.6057 7.00902 19.3989 7.20475C20.1921 7.40047 20.9235 7.78162 21.5416 8.30699C22.1597 8.84266 22.6438 9.51224 22.9529 10.2642C23.2619 11.0162 23.3855 11.8403 23.3134 12.6541C23.2413 13.4679 22.9735 14.2508 22.5408 14.941C22.1082 15.6312 21.5107 16.2081 20.8102 16.6304C20.1097 17.0528 19.3165 17.2794 18.5027 17.3412C16.8545 17.4855 16.3085 16.9086 15.639 16.1669" stroke="white" stroke-linecap="round"/>
</g>
<defs>
<clipPath id="clip0_171_1852">
<rect width="24" height="24" fill="white" transform="translate(0.333496)"/>
</clipPath>
</defs>
</svg>
