<svg width="21" height="21" viewBox="0 0 21 21" fill="none" xmlns="http://www.w3.org/2000/svg">
<g id="icons/social/ic-twitter">
<path id="shape" d="M7.23326 17.1667C9.72277 17.25 12.1402 16.323 13.9357 14.5965C15.7312 12.87 16.7522 10.4909 16.7666 8C17.3313 7.30117 17.7506 6.49652 17.9999 5.63333C18.0379 5.49402 17.9907 5.34537 17.8791 5.25364C17.7676 5.1619 17.6126 5.14416 17.4833 5.20833C16.8775 5.49994 16.1532 5.37251 15.6833 4.89166C15.0922 4.24444 14.2643 3.86413 13.3882 3.83744C12.5121 3.81075 11.6626 4.13995 11.0333 4.75C10.1657 5.59016 9.80204 6.82356 10.0749 8C7.28326 8.16666 5.3666 6.84166 3.83326 5.025C3.73914 4.9184 3.59089 4.87756 3.45545 4.9209C3.32001 4.96424 3.22302 5.08356 3.20826 5.225C2.61003 8.54347 4.13899 11.8839 7.0416 13.6C6.0913 14.6899 4.75677 15.3705 3.3166 15.5C3.15841 15.5262 3.03441 15.6501 3.00805 15.8083C2.98169 15.9665 3.05881 16.1239 3.19993 16.2C4.45286 16.8261 5.83262 17.1568 7.23326 17.1667Z" fill="#00AAEC"/>
</g>
</svg>
