<svg width="12" height="12" viewBox="0 0 12 12" fill="none" xmlns="http://www.w3.org/2000/svg">
<path d="M10.125 2.25H1.875C1.72582 2.25 1.58274 2.30926 1.47725 2.41475C1.37176 2.52024 1.3125 2.66332 1.3125 2.8125C1.3125 2.96168 1.37176 3.10476 1.47725 3.21025C1.58274 3.31574 1.72582 3.375 1.875 3.375H2.0625V9.75C2.0625 9.99864 2.16127 10.2371 2.33709 10.4129C2.5129 10.5887 2.75136 10.6875 3 10.6875H9C9.24864 10.6875 9.4871 10.5887 9.66291 10.4129C9.83873 10.2371 9.9375 9.99864 9.9375 9.75V3.375H10.125C10.2742 3.375 10.4173 3.31574 10.5227 3.21025C10.6282 3.10476 10.6875 2.96168 10.6875 2.8125C10.6875 2.66332 10.6282 2.52024 10.5227 2.41475C10.4173 2.30926 10.2742 2.25 10.125 2.25ZM8.8125 9.5625H3.1875V3.375H8.8125V9.5625ZM3.5625 0.9375C3.5625 0.788316 3.62176 0.645242 3.72725 0.539752C3.83274 0.434263 3.97582 0.375 4.125 0.375H7.875C8.02418 0.375 8.16726 0.434263 8.27275 0.539752C8.37824 0.645242 8.4375 0.788316 8.4375 0.9375C8.4375 1.08668 8.37824 1.22976 8.27275 1.33525C8.16726 1.44074 8.02418 1.5 7.875 1.5H4.125C3.97582 1.5 3.83274 1.44074 3.72725 1.33525C3.62176 1.22976 3.5625 1.08668 3.5625 0.9375Z" fill="white"/>
</svg>
