<svg width="201" height="150" viewBox="0 0 201 150" fill="none" xmlns="http://www.w3.org/2000/svg">
<g id="illustrations/background" opacity="0.2">
<mask id="mask0_139_2544" style="mask-type:alpha" maskUnits="userSpaceOnUse" x="0" y="0" width="201" height="150">
<path id="mask" opacity="0.48" fill-rule="evenodd" clip-rule="evenodd" d="M0.5 82.8253C0.5 100.099 6.72724 115.84 16.9746 127.736C28.7306 141.388 45.778 149.971 64.7803 150C73.085 150.012 81.0259 148.38 88.3199 145.401C92.0913 143.861 96.3124 144.037 99.9651 145.863C104.25 148.002 109.048 149.201 114.114 149.201C116.207 149.201 118.256 148.995 120.239 148.603C125.897 147.491 131.047 144.858 135.276 141.128C137.934 138.784 141.338 137.605 144.817 137.609H144.876C156.371 137.609 167.049 133.971 175.914 127.736C183.84 122.169 190.312 114.529 194.624 105.559C198.384 97.7421 200.5 88.9117 200.5 79.5658C200.5 47.5113 175.594 21.5222 144.876 21.5222C141.744 21.5222 138.676 21.7982 135.683 22.3132C127.757 8.92503 113.565 0 97.3743 0C90.5388 0 84.0585 1.5907 78.2578 4.44218C72.7413 7.14514 67.8365 10.9859 63.8243 15.6667C50.2006 15.8933 37.6033 20.5375 27.2929 28.2881C11.0631 40.4813 0.5 60.3676 0.5 82.8253Z" fill="url(#paint0_linear_139_2544)"/>
</mask>
<g mask="url(#mask0_139_2544)">
<rect id="color" x="0.5" width="200" height="150" fill="#0EFA09"/>
</g>
</g>
<defs>
<linearGradient id="paint0_linear_139_2544" x1="100.5" y1="150" x2="178.383" y2="10.5074" gradientUnits="userSpaceOnUse">
<stop/>
<stop offset="1" stop-opacity="0.01"/>
</linearGradient>
</defs>
</svg>
