<svg width="24" height="24" viewBox="0 0 24 24" fill="none" xmlns="http://www.w3.org/2000/svg">
<g clip-path="url(#clip0_178_2023)">
<path d="M0.00341797 16.5606C0.127631 16.5707 0.134345 16.6815 0.167917 16.7621C0.483485 17.5275 1.05755 17.8934 1.88004 17.8934C4.06888 17.8934 6.25772 17.8867 8.44991 17.9001C8.89641 17.9035 9.20191 17.7457 9.36305 17.3261C9.42012 17.1951 9.52419 17.1448 9.66183 17.1448C10.1755 17.1481 10.6891 17.1246 11.1994 17.1582C11.3236 17.1817 11.3672 17.2858 11.4075 17.3865C11.8775 18.5245 12.6027 19.4948 13.4117 20.4112C14.4256 21.5594 15.5536 22.5833 16.7554 23.5266C16.836 23.5904 16.9132 23.6542 16.9971 23.7113C17.3295 23.9429 17.6014 23.953 17.9237 23.7146C18.5548 23.2446 19.1557 22.7411 19.7399 22.2107C20.1495 21.838 20.5557 21.4654 20.9317 21.0592C21.875 20.042 22.7781 18.9878 23.3756 17.7155C23.6912 17.0474 23.9128 16.3525 23.8893 15.6005C23.8658 14.7713 23.5939 14.0294 23.0601 13.3915C22.9224 13.2237 22.7848 13.0525 22.6035 12.9249C22.5263 12.8712 22.4692 12.794 22.4356 12.7033C22.2711 12.005 22.1369 11.2967 21.9925 10.5917C21.9824 10.538 21.9824 10.4843 22.0059 10.4339C22.016 10.4205 22.0227 10.4037 22.0361 10.397C22.5364 10.1553 22.5867 9.76584 22.4793 9.25892C21.9388 6.68066 21.4084 4.09903 20.8779 1.52077C20.7302 0.798993 20.324 0.315569 19.6022 0.114142C19.5418 0.0973563 19.4545 0.100713 19.4545 0" fill="black"/>
<path d="M0.167856 23.9999C0.0268569 23.9999 0 23.973 0 23.832L0.167856 23.9999Z" fill="black"/>
<path d="M19.4578 0.00341797C19.525 0.0873458 19.629 0.0470604 19.713 0.0772745C20.3441 0.29213 20.7671 0.711769 20.9047 1.36305C21.4285 3.84731 21.9387 6.33829 22.4524 8.82591C22.4994 9.04748 22.5497 9.26569 22.59 9.48726C22.6807 9.9774 22.5061 10.2762 22.0361 10.444C21.8179 10.5615 21.5157 10.4944 21.3009 10.2795C21.1431 10.1251 21.0827 9.92369 21.039 9.71555C20.6865 7.95978 20.3139 6.20736 19.958 4.45159C19.7868 3.61231 19.6123 2.77304 19.4377 1.93711C19.3705 1.61483 19.3135 1.56783 18.9811 1.56783C18.4037 1.56448 17.8296 1.57455 17.2522 1.56448C17.0776 1.56112 17.0474 1.60812 17.081 1.77933C17.6047 4.32738 18.1351 6.87207 18.6689 9.42012C18.6924 9.52755 18.7159 9.63162 18.726 9.7424C18.7763 10.2426 18.5749 10.5548 18.0915 10.7193C17.5879 10.7764 17.269 10.5649 17.1381 10.0714C16.9937 9.52083 16.8997 8.9602 16.7856 8.40292C16.3391 6.26779 15.9026 4.12931 15.4561 1.99419C15.3722 1.59805 15.3521 1.5779 14.9492 1.5779C11.6458 1.5779 8.34243 1.5779 5.03567 1.5779C4.6261 1.5779 4.59589 1.60476 4.51196 2.01097C3.72975 5.77429 2.94419 9.54098 2.16869 13.3144C1.98741 14.1906 1.79941 15.0701 1.62484 15.9463C1.55099 16.3223 1.61141 16.3962 1.99077 16.3962C4.10911 16.3962 6.2308 16.3962 8.34914 16.3962C8.44985 16.3962 8.55057 16.3928 8.65464 16.3996C9.20185 16.4298 9.50734 16.8158 9.40999 17.3563C9.26227 17.7961 9.03063 17.964 8.56064 17.964C6.33152 17.964 4.10239 17.964 1.87327 17.964C0.936635 17.964 0.342426 17.5275 0.0503567 16.6312C0.0402854 16.601 0.0369282 16.5708 0 16.5607C0 16.3425 0 16.1243 0 15.9061C0.872849 11.2867 1.8867 6.6975 2.82333 2.0949C2.86697 1.88676 2.9039 1.68197 2.9509 1.47719C3.12883 0.661412 3.58875 0.130988 4.44817 0.00677508C9.45027 0.00341797 14.4557 0.00341797 19.4578 0.00341797Z" fill="#8FFA09"/>
<path d="M4.44814 0.00341797C4.32057 0.0504175 4.18964 0.0873458 4.06543 0.144417L4.44814 0.00341797Z" fill="black"/>
<path d="M9.4131 17.3561C9.41982 16.7384 9.14453 16.4665 8.51675 16.4665C6.31113 16.4665 4.10551 16.4665 1.89988 16.4665C1.55074 16.4665 1.46682 16.3658 1.53396 16.0301C2.50752 11.3167 3.48108 6.59994 4.45465 1.88656C4.5285 1.52399 4.55872 1.50049 4.93471 1.50049C8.29183 1.50049 11.6523 1.50049 15.0094 1.50049C15.4089 1.50049 15.419 1.50385 15.4995 1.89663C16.0535 4.56218 16.6074 7.22772 17.1613 9.88991C17.2822 10.4808 17.5004 10.6654 18.1013 10.6654C18.1181 10.6822 18.1382 10.6956 18.145 10.7191C18.2792 11.2663 18.4068 11.8135 18.474 12.3742C18.4505 12.4648 18.38 12.5152 18.3061 12.5588C18.0644 12.7032 17.8462 12.8811 17.6347 13.0657C17.497 13.1866 17.3795 13.19 17.252 13.059C16.6779 12.4883 15.983 12.1593 15.184 12.0687C13.8546 11.9176 12.7366 12.3507 11.8806 13.378C11.0312 14.3952 10.8634 15.5668 11.2125 16.8291C11.2461 16.9533 11.3233 17.0741 11.2629 17.2118C10.7291 17.2118 10.192 17.2151 9.65817 17.2051C9.53396 17.2084 9.4601 17.2453 9.4131 17.3561Z" fill="black"/>
<path d="M11.2665 17.2151C10.9812 16.3993 10.8737 15.5701 11.1121 14.7208C11.8708 12.0116 15.2313 11.0649 17.2791 12.9918C17.4369 13.1429 17.5141 13.1295 17.6518 12.9851C17.8767 12.7468 18.162 12.5823 18.4373 12.4043C18.4843 12.3271 18.5548 12.2801 18.6354 12.2466C19.8842 11.7262 21.0928 11.7934 22.2544 12.5118C22.3484 12.5688 22.4323 12.6393 22.4927 12.7333C23.0735 13.2268 23.5233 13.8076 23.7651 14.5395C24.1411 15.6775 23.9094 16.7518 23.4058 17.7892C22.8217 18.9944 21.9891 20.0183 21.076 20.9818C20.1327 21.9788 19.1054 22.8853 18.0143 23.7212C17.6182 24.0267 17.316 24.0267 16.9165 23.7178C15.2883 22.4589 13.7844 21.0791 12.5389 19.4308C12.0185 18.7493 11.5855 18.0141 11.2665 17.2151Z" fill="#F34336"/>
<path d="M22.4894 12.7335C21.9556 12.3743 21.3883 12.1058 20.7404 12.0151C19.9682 11.9077 19.2397 12.0319 18.5414 12.3642C18.5079 12.381 18.4709 12.3945 18.434 12.4079C18.33 11.8875 18.2259 11.3705 18.1218 10.8502C18.1084 10.7898 18.1084 10.7293 18.1017 10.6689C18.6254 10.4171 18.7429 10.1721 18.6254 9.6047C18.0815 6.97608 17.5377 4.35082 16.9871 1.7222C16.9468 1.53084 16.9972 1.49392 17.1818 1.49727C17.8062 1.50734 18.4273 1.50063 19.0517 1.50063C19.374 1.50063 19.421 1.5342 19.4848 1.85648C19.9279 4.00504 20.3711 6.15359 20.8109 8.30214C20.9116 8.79564 21.0123 9.29249 21.1231 9.78598C21.2339 10.2828 21.5293 10.4943 22.0295 10.444C22.1873 11.206 22.3383 11.9715 22.4894 12.7335Z" fill="black"/>
<path d="M5.98929 4.06892C5.98929 3.5855 5.98593 3.18936 5.98929 2.78986C5.99264 2.32994 6.3015 2.0043 6.73456 2.0043C7.16427 2.0043 7.4832 2.32658 7.48656 2.78315C7.48991 3.52171 7.47984 4.26363 7.48991 5.0022C7.5067 6.44576 8.69848 7.55696 10.1387 7.47975C11.458 7.40925 12.4652 6.31147 12.4786 4.92163C12.4853 4.18978 12.4752 3.45793 12.4819 2.72608C12.4853 2.36351 12.7404 2.0748 13.0728 2.01437C13.4286 1.95058 13.7509 2.11844 13.902 2.43736C13.949 2.53808 13.9759 2.6455 13.9725 2.75293C13.9624 3.63921 14.0161 4.52885 13.9423 5.41512C13.8013 7.17425 12.3007 8.72524 10.5449 8.93673C8.36948 9.19859 6.49957 7.8591 6.05978 5.72733C5.94229 5.15327 6.00943 4.56577 5.98929 4.06892Z" fill="#8FFA09"/>
<path d="M14.8687 13.4722C15.6442 13.5192 16.3324 13.9254 16.7487 14.7546C16.9569 15.1675 17.3765 15.3287 17.7861 15.1541C17.9875 15.0702 18.0983 14.9124 18.1923 14.7244C18.6656 13.7676 19.7366 13.2775 20.7605 13.5427C21.8079 13.8146 22.5062 14.7546 22.4457 15.8322C22.4122 16.4365 22.1738 16.9804 21.8784 17.4974C21.217 18.6522 20.3308 19.6224 19.3908 20.549C18.8201 21.113 18.2191 21.6434 17.5947 22.1503C17.5175 22.2141 17.4638 22.2577 17.3597 22.1738C15.7785 20.8612 14.2812 19.468 13.1768 17.7089C12.8075 17.118 12.502 16.4936 12.4852 15.7752C12.4516 14.4961 13.4554 13.4722 14.8687 13.4722Z" fill="#F34336"/>
</g>
<defs>
<clipPath id="clip0_178_2023">
<rect width="24" height="24" fill="white"/>
</clipPath>
</defs>
</svg>
